<svg version="1.1" id="Layer_1" xmlns="http://www.w3.org/2000/svg" xmlns:xlink="http://www.w3.org/1999/xlink" x="0px" y="0px"
	 width="100%" viewBox="0 0 527 527" enable-background="new 0 0 527 527" xml:space="preserve">
<path fill="#000000" opacity="1.000000" stroke="none" 
	d="
M248.000000,528.000000 
	C166.666672,528.000000 85.833290,527.972229 5.000147,528.096069 
	C1.575788,528.101257 0.903248,527.423645 0.905380,523.999939 
	C1.013066,351.000000 1.013066,177.999985 0.905380,5.000059 
	C0.903248,1.576381 1.576381,0.903250 5.000059,0.905381 
	C177.999985,1.013057 351.000000,1.013057 523.999939,0.905381 
	C527.423645,0.903250 528.096741,1.576381 528.094604,5.000059 
	C527.986938,177.999985 527.986938,351.000000 528.094604,523.999939 
	C528.096741,527.423645 527.424072,528.100159 523.999878,528.095703 
	C432.166687,527.975464 340.333344,528.000000 248.000000,528.000000 
z"/>
<path fill="#2A2A2A" opacity="1.000000" stroke="none" 
	d="
M372.730286,390.491333 
	C373.231018,392.667114 373.554749,394.499390 373.906433,396.729340 
	C373.265686,400.613464 374.924194,403.957703 374.787872,407.725708 
	C375.011841,408.026093 375.144836,408.283936 375.063416,408.403992 
	C375.266144,409.041870 375.431854,409.595123 375.487518,410.620850 
	C375.116638,413.884979 376.384033,416.876038 374.311981,419.847687 
	C373.975708,420.127350 373.993042,419.977875 374.067932,419.985107 
	C372.427460,420.949951 370.561768,420.470520 368.773895,420.473114 
	C343.878815,420.509338 318.983643,420.497528 293.595093,420.497742 
	C271.126038,420.497437 249.150375,420.497650 226.686203,420.497742 
	C216.816833,420.497437 207.435989,420.497650 197.571075,420.497742 
	C183.613495,420.497375 170.139908,420.514099 156.666473,420.476257 
	C155.039734,420.471680 153.330154,420.912048 151.474182,419.583923 
	C150.453201,409.482880 153.326004,400.061462 153.719711,390.419495 
	C153.807098,388.279358 153.838074,386.136902 153.935638,383.554260 
	C155.017487,379.713593 154.231720,376.210541 154.771713,372.390533 
	C156.799667,367.218842 155.490067,361.982239 157.033096,357.175903 
	C158.761429,351.792419 157.036652,346.057861 158.921753,340.285706 
	C158.058701,337.051483 158.595749,334.186890 158.825073,330.899719 
	C159.010788,330.458221 158.840439,330.280823 158.903580,330.175293 
	C159.123184,329.904236 159.279663,329.738708 159.699188,329.355042 
	C160.134033,322.610168 160.761108,316.128754 161.930069,309.274109 
	C160.580276,305.422211 162.513062,302.193573 162.769012,298.479675 
	C163.622650,287.552185 165.552429,277.159973 166.964920,266.273682 
	C166.101730,264.182739 166.636307,262.411316 166.743790,260.294922 
	C166.935684,259.901245 166.953598,259.993347 166.907089,259.999573 
	C167.990402,259.073029 167.277832,257.756653 167.747726,256.340637 
	C169.871002,252.861572 168.828217,249.119827 169.963989,245.733521 
	C171.514496,241.110748 174.137619,238.460281 179.648254,238.947693 
	C185.192596,236.829620 190.608917,237.673416 196.371017,237.465576 
	C200.325424,236.256454 203.971680,236.337051 207.573318,236.554352 
	C210.496582,236.730698 211.905975,235.948242 211.546997,232.758575 
	C211.327789,230.810684 211.448776,228.812302 211.741333,226.439011 
	C214.349594,223.245544 212.966324,219.669968 213.599396,216.514954 
	C214.996643,209.551422 217.489441,203.206116 221.185669,197.309387 
	C222.843948,194.663864 222.922150,192.779419 221.053024,190.184570 
	C215.446472,182.401108 210.373108,174.145660 200.136353,171.052139 
	C198.489365,169.419327 198.371765,167.573212 198.730270,165.290161 
	C198.908325,164.928589 198.972565,164.979675 198.952164,164.944092 
	C202.115448,163.422943 204.597656,165.519653 207.634995,166.753403 
	C217.534164,171.665649 222.401489,180.640930 228.042114,188.924530 
	C230.736862,192.881912 233.102585,197.061813 237.230270,199.913132 
	C242.169128,203.324814 246.520676,202.732483 249.586334,197.495483 
	C251.594879,194.064301 253.299179,194.314224 255.519577,197.174652 
	C261.204865,204.498672 266.269775,204.253159 270.644928,196.276978 
	C272.623108,192.670654 274.795959,193.356537 276.741058,195.740692 
	C278.464874,197.853653 280.676910,199.254288 282.570709,201.047745 
	C285.370148,203.698914 287.816223,203.289185 290.602325,201.501236 
	C293.788971,199.456238 293.665283,196.311234 292.533508,193.514832 
	C288.373047,183.235168 283.706604,173.179291 276.146820,164.840668 
	C274.244995,162.742859 274.656952,161.113373 276.284027,159.208649 
	C278.356171,156.782867 279.381561,159.007553 280.629608,160.091812 
	C285.196350,164.059311 287.427582,169.717407 290.960510,174.940750 
	C295.583069,169.131973 295.747498,163.298767 292.966034,157.125732 
	C288.064606,146.247864 279.546997,138.714050 270.082062,131.924652 
	C259.092804,124.041817 246.320969,119.649826 234.252747,113.113480 
	C233.284790,110.136719 232.745575,107.373528 237.504272,107.722488 
	C243.684875,109.430122 248.559433,112.931847 253.925385,115.354866 
	C263.239075,119.560509 272.213257,124.470833 280.139465,131.049438 
	C289.413635,138.746811 297.531830,147.307037 300.951538,159.701065 
	C300.646027,163.546432 301.228241,167.084549 300.097107,170.869019 
	C299.571167,173.799133 297.935974,175.767914 296.495117,177.763580 
	C293.706665,181.625778 294.901337,185.036469 298.142029,187.333664 
	C307.512634,193.976166 310.840515,203.690323 313.048950,214.235321 
	C314.429443,220.826950 313.692871,227.456894 314.037842,234.526718 
	C316.712311,237.698196 320.309967,236.217545 323.792969,236.976669 
	C324.320496,236.972046 324.487854,236.976135 324.901886,237.027176 
	C330.107941,238.054184 335.126099,237.188599 340.517456,237.711304 
	C342.200592,239.521118 344.065033,238.765030 346.090088,239.166092 
	C347.804688,239.724945 349.164581,239.349609 350.769775,239.751465 
	C351.061310,239.914566 350.989624,239.962509 351.008057,239.923538 
	C351.210907,240.176361 351.429352,240.439911 351.896271,240.818481 
	C352.110657,240.961761 352.033295,240.992981 352.054138,240.956848 
	C352.423950,241.426590 352.484619,242.038895 352.908508,242.805252 
	C353.123352,243.014099 353.041840,242.996307 353.053162,242.956177 
	C353.684692,243.722473 353.382416,244.727737 353.855682,245.891541 
	C354.065918,246.171936 354.162842,246.361115 354.072144,246.416504 
	C354.680206,249.689789 355.700348,252.855927 355.721375,256.587708 
	C357.966278,259.091400 356.534973,261.779236 357.025024,264.591858 
	C358.380310,268.271149 358.556732,271.696045 358.658203,275.530151 
	C361.084259,278.631042 360.248962,282.118713 360.850220,285.213776 
	C361.942749,290.837738 362.288910,296.606750 362.929138,302.746124 
	C363.139069,305.895325 363.722046,308.585938 363.746033,311.615356 
	C365.385254,322.999908 367.290924,334.048462 367.949554,345.693756 
	C369.039856,350.097809 367.833069,354.268768 369.362457,358.398804 
	C370.111450,362.476318 370.549896,366.369080 370.959595,370.701294 
	C370.883911,374.187775 371.851562,377.171326 371.506836,380.621307 
	C372.542114,383.975281 372.565887,387.059509 372.730286,390.491333 
z"/>
<path fill="#FFFFFF" opacity="1.000000" stroke="none" 
	d="
M292.728455,420.325317 
	C317.122559,420.059784 341.195068,419.968872 365.267517,419.861938 
	C367.921600,419.850159 370.575317,419.746613 373.685974,419.838989 
	C372.999817,421.894531 371.148956,420.950592 369.657928,420.954163 
	C344.426666,421.014648 319.195251,420.993011 293.502197,420.921021 
	C292.829315,420.733429 292.618073,420.614319 292.728455,420.325317 
z"/>
<path fill="#CBCBCB" opacity="1.000000" stroke="none" 
	d="
M292.582825,420.085205 
	C293.050049,420.155365 293.019440,420.503601 293.029968,420.678101 
	C271.015198,420.881714 248.989883,420.910858 226.508453,420.567200 
	C248.073441,420.134613 270.094513,420.074829 292.582825,420.085205 
z"/>
<path fill="#959595" opacity="1.000000" stroke="none" 
	d="
M151.182709,419.630432 
	C152.964050,420.340668 154.985046,420.052856 156.949753,420.054047 
	C169.999039,420.061920 183.048309,420.048309 196.559189,420.441345 
	C182.425049,420.896301 167.829300,420.950073 153.233582,421.010773 
	C152.388702,421.014282 151.570831,421.018494 151.182709,419.630432 
z"/>
<path fill="#A7A7A7" opacity="1.000000" stroke="none" 
	d="
M197.484360,420.904114 
	C197.020782,420.841034 197.021729,420.508667 197.025864,420.342560 
	C206.393784,420.126343 215.757584,420.076202 225.586853,420.110229 
	C226.052353,420.194397 226.053009,420.509430 226.045746,420.666809 
	C216.674973,420.871857 207.311447,420.919556 197.484360,420.904114 
z"/>
<path fill="#F5F5F5" opacity="1.000000" stroke="none" 
	d="
M211.526596,226.209518 
	C212.219940,236.427521 212.219467,236.421310 202.322876,237.169861 
	C200.836258,237.282303 199.356400,237.484085 197.440704,237.331985 
	C199.902512,234.828644 203.253983,235.992630 206.303665,236.117569 
	C210.148682,236.275101 211.700256,235.267487 211.064896,231.313934 
	C210.807709,229.713684 211.091187,228.026550 211.526596,226.209518 
z"/>
<path fill="#E0E0E0" opacity="1.000000" stroke="none" 
	d="
M196.541595,237.038849 
	C197.008011,237.019424 197.132889,237.286163 197.092255,237.427704 
	C191.671188,238.039169 186.290756,238.509094 180.484375,238.983063 
	C182.841309,235.538254 186.697968,237.315628 190.099396,236.988266 
	C192.070816,236.798508 194.081924,237.021194 196.541595,237.038849 
z"/>
<path fill="#B9B9B9" opacity="1.000000" stroke="none" 
	d="
M300.426758,171.068787 
	C300.098694,167.628082 300.138824,164.008453 300.568634,160.233902 
	C302.741455,163.710388 301.441650,167.295166 300.426758,171.068787 
z"/>
<path fill="#DBDBDB" opacity="1.000000" stroke="none" 
	d="
M369.335510,358.368103 
	C366.716980,354.957520 368.614380,350.353149 367.574219,346.277405 
	C370.439056,349.954102 368.252289,354.183899 369.335510,358.368103 
z"/>
<path fill="#FEFEFE" opacity="1.000000" stroke="none" 
	d="
M340.740295,237.484863 
	C335.783813,237.867035 330.637878,237.862122 325.320251,237.465668 
	C330.282654,237.082001 335.416748,237.089890 340.740295,237.484863 
z"/>
<path fill="#E4E4E4" opacity="1.000000" stroke="none" 
	d="
M237.922577,107.563484 
	C234.284332,107.248268 233.670517,109.246490 233.996719,112.561859 
	C232.420349,110.786240 232.231400,108.414558 234.063309,106.551559 
	C235.043350,105.554893 236.976440,104.947144 237.922577,107.563484 
z"/>
<path fill="#DBDBDB" opacity="1.000000" stroke="none" 
	d="
M374.996185,407.579071 
	C373.169586,404.698303 373.449371,401.007446 373.564697,397.267456 
	C375.469147,400.337982 375.125061,403.745453 374.996185,407.579071 
z"/>
<path fill="#FFFFFF" opacity="1.000000" stroke="none" 
	d="
M323.944855,236.597839 
	C320.503357,238.831573 317.216980,237.442413 313.977112,235.410919 
	C317.037384,237.038788 320.548798,235.356857 323.944855,236.597839 
z"/>
<path fill="#F1F1F1" opacity="1.000000" stroke="none" 
	d="
M207.902237,166.610687 
	C205.012283,167.057877 202.495789,163.874496 199.106293,165.336151 
	C202.440765,161.773010 205.041031,164.617889 207.902237,166.610687 
z"/>
<path fill="#E0E0E0" opacity="1.000000" stroke="none" 
	d="
M358.766785,275.468872 
	C358.189026,272.557526 357.598633,269.205353 357.007019,265.440308 
	C360.357941,267.876831 358.825378,271.580170 358.766785,275.468872 
z"/>
<path fill="#E0E0E0" opacity="1.000000" stroke="none" 
	d="
M162.590057,298.216003 
	C162.639740,301.413177 162.304825,304.718781 161.966064,308.437256 
	C159.540848,305.283722 161.515198,301.818909 162.590057,298.216003 
z"/>
<path fill="#E8E8E8" opacity="1.000000" stroke="none" 
	d="
M371.323425,381.264008 
	C370.832977,377.796265 370.521545,374.596405 370.570465,371.268616 
	C373.080078,373.919647 371.638916,377.137329 371.945984,380.564331 
	C371.742493,381.175568 371.622498,381.353699 371.323425,381.264008 
z"/>
<path fill="#F1F1F1" opacity="1.000000" stroke="none" 
	d="
M355.876892,256.529449 
	C354.535797,253.899643 354.402069,250.559128 353.853973,246.906219 
	C356.022858,249.402878 356.313995,252.675781 355.876892,256.529449 
z"/>
<path fill="#E4E4E4" opacity="1.000000" stroke="none" 
	d="
M371.115906,381.398346 
	C371.144409,380.996155 371.503448,381.000214 371.682983,380.998840 
	C374.063049,383.762482 372.670441,386.970734 372.938293,390.402588 
	C371.127289,388.059753 372.401123,384.669525 371.115906,381.398346 
z"/>
<path fill="#DBDBDB" opacity="1.000000" stroke="none" 
	d="
M154.573212,372.138123 
	C155.180878,375.513000 155.219147,379.008545 154.245773,382.792053 
	C154.039490,379.497345 154.102753,375.881653 154.573212,372.138123 
z"/>
<path fill="#E8E8E8" opacity="1.000000" stroke="none" 
	d="
M363.988312,311.473633 
	C361.966309,309.363861 363.213165,306.180908 362.574890,303.311951 
	C365.040466,305.552399 363.654572,308.427643 363.988312,311.473633 
z"/>
<path fill="#E4E4E4" opacity="1.000000" stroke="none" 
	d="
M374.410034,420.076233 
	C375.576965,417.515289 374.941315,414.662964 374.906372,411.433502 
	C375.110657,410.799591 375.271118,410.602631 375.667053,410.705322 
	C375.438477,413.998627 377.274475,417.262085 374.410034,420.076233 
z"/>
<path fill="#DBDBDB" opacity="1.000000" stroke="none" 
	d="
M158.679352,330.752441 
	C158.996460,333.284271 158.982147,336.110352 158.966797,339.398590 
	C157.175034,337.033813 157.925644,334.028748 158.679352,330.752441 
z"/>
<path fill="#F1F1F1" opacity="1.000000" stroke="none" 
	d="
M198.548309,165.100601 
	C200.659760,166.396057 197.747162,168.716476 199.873535,170.529724 
	C195.787872,170.112518 198.876266,167.125839 198.548309,165.100601 
z"/>
<path fill="#F5F5F5" opacity="1.000000" stroke="none" 
	d="
M166.583069,260.066956 
	C168.557251,261.575317 166.345871,263.264740 166.957016,265.393738 
	C165.056915,264.189026 166.180695,262.141205 166.583069,260.066956 
z"/>
<path fill="#DBDBDB" opacity="1.000000" stroke="none" 
	d="
M350.943115,239.569870 
	C349.617096,241.255081 348.506866,239.344803 346.844360,239.402679 
	C347.945587,239.267899 349.385254,239.246536 350.943115,239.569870 
z"/>
<path fill="#F5F5F5" opacity="1.000000" stroke="none" 
	d="
M167.574310,256.148010 
	C167.854294,257.438934 167.773041,258.843903 167.276184,260.127319 
	C166.978088,258.757874 167.095581,257.509979 167.574310,256.148010 
z"/>
<path fill="#DBDBDB" opacity="1.000000" stroke="none" 
	d="
M354.057343,245.791473 
	C352.319702,246.019608 353.018890,244.328415 352.719177,243.199570 
	C354.525879,243.300613 353.921356,244.500183 354.057343,245.791473 
z"/>
<path fill="#DBDBDB" opacity="1.000000" stroke="none" 
	d="
M375.977539,410.644836 
	C375.902496,411.005005 375.426422,410.991058 375.188293,410.993805 
	C374.844604,410.435516 374.739014,409.874451 374.807739,408.918762 
	C375.580505,408.963989 376.153442,409.419464 375.977539,410.644836 
z"/>
<path fill="#DBDBDB" opacity="1.000000" stroke="none" 
	d="
M353.085327,242.683411 
	C351.748627,243.401123 351.922211,241.999176 351.707458,241.195679 
	C352.898773,241.058792 353.070435,241.639633 353.085327,242.683411 
z"/>
<path fill="#DBDBDB" opacity="1.000000" stroke="none" 
	d="
M352.050262,240.683258 
	C351.534058,241.487900 351.048584,241.416122 350.840881,240.312256 
	C351.347626,240.057953 351.668762,240.231354 352.050262,240.683258 
z"/>
<path fill="#DBDBDB" opacity="1.000000" stroke="none" 
	d="
M159.691772,329.133820 
	C159.826370,329.535004 159.690506,329.933044 159.260681,330.200439 
	C159.118256,329.756775 159.269791,329.443726 159.691772,329.133820 
z"/>
<path fill="#FEFEFE" opacity="1.000000" stroke="none" 
	d="
M352.998230,277.150513 
	C356.814545,305.257812 360.142792,332.976074 363.045471,360.749451 
	C364.737640,376.940552 366.790405,393.095673 368.848389,409.245605 
	C369.287048,412.687836 368.982117,414.069153 364.811066,414.080566 
	C297.183228,414.265564 229.555664,414.609070 161.929230,415.086792 
	C157.728638,415.116486 156.745926,414.298676 157.226318,409.980042 
	C159.395493,390.480194 160.920456,370.908356 163.115051,351.411713 
	C166.089493,324.987000 168.132492,298.461151 171.897491,272.119659 
	C173.024811,264.232513 173.981354,256.339081 175.690186,248.543274 
	C176.245621,246.009338 177.300522,245.111465 179.910614,244.766861 
	C189.511139,243.499298 199.149612,243.176758 208.804611,242.869324 
	C211.266251,242.790939 211.932678,243.604828 211.903030,245.967651 
	C211.811066,253.295639 211.925919,260.626221 211.960770,267.955811 
	C211.972031,270.325256 211.783035,273.096619 215.172028,272.984161 
	C218.238052,272.882477 217.982758,270.259888 217.924500,268.081970 
	C217.728577,260.755890 217.609756,253.425339 217.242279,246.107483 
	C217.098907,243.252243 218.120087,242.317017 220.890594,242.295410 
	C249.039780,242.075882 277.188080,241.592346 305.331940,242.761398 
	C307.915710,242.868698 308.286346,243.904510 308.254913,246.087952 
	C308.154266,253.083008 308.237549,260.080505 308.205322,267.076874 
	C308.195496,269.207733 308.396942,271.480988 310.966736,271.573761 
	C313.973480,271.682281 313.996582,269.222046 313.980865,266.934235 
	C313.935150,260.271210 314.091309,253.604126 313.905792,246.945953 
	C313.825836,244.076675 314.288208,242.815414 317.636505,243.010910 
	C326.279144,243.515579 334.924347,243.861465 343.551666,244.693649 
	C346.425720,244.970886 347.629852,246.104065 348.079865,248.761703 
	C349.658661,258.085663 351.325592,267.394684 352.998230,277.150513 
z"/>
<path fill="#000000" opacity="1.000000" stroke="none" 
	d="
M218.381485,236.124481 
	C218.456543,226.010910 220.115250,216.376968 222.837128,206.948639 
	C223.453171,204.814728 225.366776,203.232956 226.394806,201.131683 
	C227.278214,199.326019 228.739960,201.227020 229.445572,202.074234 
	C231.746170,204.836548 234.722198,206.578720 237.869965,208.074554 
	C242.328247,210.193146 246.573669,209.235641 250.565628,206.790359 
	C252.009949,205.905609 253.198349,204.762711 254.989609,206.054520 
	C261.308044,210.611267 267.304413,210.385651 272.804565,204.652573 
	C274.004791,203.401489 274.991699,203.486008 276.169250,204.603851 
	C277.778656,206.131683 279.753204,207.034546 281.753662,207.980896 
	C289.393188,211.594940 296.420258,208.321426 298.378754,200.093796 
	C298.515564,199.519196 298.691620,198.953949 299.083984,197.537491 
	C307.119507,209.462479 307.614777,222.224609 307.978699,235.484116 
	C304.047424,237.170288 299.979645,236.174133 295.503632,236.497742 
	C290.962006,236.497543 286.889526,236.497665 282.346008,236.497742 
	C269.612213,236.497192 257.349426,236.498322 244.634308,236.494873 
	C240.732864,235.839981 237.261490,235.884064 233.362686,236.272552 
	C232.364151,236.468491 231.782700,236.505112 230.756836,236.496857 
	C226.451431,236.448578 222.586044,236.600540 218.381485,236.124481 
z"/>
<path fill="#959595" opacity="1.000000" stroke="none" 
	d="
M243.329910,236.414719 
	C255.720428,235.974030 268.418488,235.972061 281.588745,236.403870 
	C269.253082,236.842896 256.445282,236.848160 243.329910,236.414719 
z"/>
<path fill="#FFFFFF" opacity="1.000000" stroke="none" 
	d="
M242.853821,235.584747 
	C243.022369,235.976013 242.655334,236.115112 242.689392,236.308380 
	C239.842072,236.556808 236.960693,236.611954 233.646179,236.674133 
	C232.943268,236.637451 232.673462,236.593735 232.659393,236.229584 
	C236.052582,234.042526 239.418488,235.294601 242.853821,235.584747 
z"/>
<path fill="#CBCBCB" opacity="1.000000" stroke="none" 
	d="
M217.726959,236.051620 
	C222.039429,235.902939 226.039062,235.969421 230.496704,236.081665 
	C231.167465,236.255157 231.380203,236.382889 231.265839,236.688202 
	C226.435150,236.561172 221.858002,237.918091 217.726959,236.051620 
z"/>
<path fill="#C1C1C1" opacity="1.000000" stroke="none" 
	d="
M282.518433,236.876282 
	C282.060913,236.837631 282.033295,236.494064 282.038818,236.321808 
	C286.067413,236.096222 290.090424,236.042908 294.574097,236.405853 
	C291.015137,236.853058 286.995544,236.883987 282.518433,236.876282 
z"/>
<path fill="#E0E0E0" opacity="1.000000" stroke="none" 
	d="
M295.491669,236.876526 
	C295.034760,236.822128 295.029663,236.493164 295.028473,236.328674 
	C299.046661,236.100693 303.066010,236.037201 307.548950,235.957825 
	C304.161041,238.343430 299.947754,236.331070 295.491669,236.876526 
z"/>
<path fill="#959595" opacity="1.000000" stroke="none" 
	d="
M231.323151,236.941040 
	C230.938705,236.865784 230.998764,236.497742 230.976746,236.312592 
	C231.387527,236.057938 231.820328,235.988434 232.584122,235.914032 
	C232.915115,235.909134 233.241943,236.226532 233.227509,236.453857 
	C232.711227,236.792877 232.209412,236.904572 231.323151,236.941040 
z"/>
<path fill="#038667" opacity="1.000000" stroke="none" 
	d="
M271.336121,293.419312 
	C276.701355,293.659973 278.255829,296.612061 278.194061,301.099152 
	C278.104736,307.588531 278.300568,314.083740 278.114044,320.568939 
	C278.031891,323.424500 278.969055,324.298584 281.790100,324.220428 
	C288.275696,324.040771 294.771362,324.074615 301.259827,324.193146 
	C307.066589,324.299225 308.964935,326.325256 308.996735,332.098938 
	C309.026062,337.424408 309.066956,342.751129 308.983612,348.075439 
	C308.909180,352.833588 306.753357,355.053894 301.956635,355.136566 
	C295.135162,355.254150 288.307556,355.282654 281.488190,355.116364 
	C278.870026,355.052521 278.046173,355.831482 278.115204,358.473572 
	C278.289032,365.126007 278.243500,371.787170 278.146790,378.442780 
	C278.066315,383.982025 276.139069,385.880280 270.556885,385.980469 
	C265.232971,386.076050 259.903992,386.092773 254.581009,385.974030 
	C249.466888,385.859985 247.341385,383.787781 247.206619,378.603699 
	C247.046661,372.450073 246.960815,366.279877 247.239868,360.134888 
	C247.409866,356.391388 246.567551,354.812958 242.410980,355.072998 
	C236.277267,355.456726 230.100769,355.236786 223.944214,355.151093 
	C218.563553,355.076233 216.686981,353.335999 216.517792,348.006989 
	C216.343613,342.520538 216.351624,337.020844 216.507462,331.533417 
	C216.662216,326.083923 218.636673,324.268799 224.313507,324.185883 
	C230.636337,324.093475 236.966629,324.014374 243.283508,324.228821 
	C246.283386,324.330627 247.387177,323.567535 247.237808,320.384827 
	C246.972839,314.738770 247.157516,309.071350 247.165283,303.412872 
	C247.177124,294.797394 248.607773,293.397766 257.418030,293.384766 
	C261.911530,293.378143 266.404999,293.390045 271.336121,293.419312 
z"/>
</svg>