<svg version="1.1" id="Layer_1" xmlns="http://www.w3.org/2000/svg" xmlns:xlink="http://www.w3.org/1999/xlink" x="0px" y="0px"
	 width="100%" viewBox="0 0 527 527" enable-background="new 0 0 527 527" xml:space="preserve">
<path fill="#FFFFFF" opacity="1.000000" stroke="none" 
	d="
M1.000000,527.000000 
	C1.000000,351.737610 1.000000,176.475204 1.000000,1.000000 
	C175.691513,1.000000 350.383118,1.000000 525.538208,1.462638 
	C526.001099,177.283524 526.000549,352.641754 526.000000,528.000000 
	C351.641754,528.000000 177.283524,528.000000 2.366117,527.772095 
	C1.605569,527.262634 1.336583,527.081238 1.000000,527.000000 
M299.031036,155.540985 
	C295.627441,146.598373 289.691895,139.573898 282.569977,133.352386 
	C269.592499,122.015656 253.707886,115.809555 238.579483,108.283417 
	C237.494232,107.743530 235.663055,108.703094 234.178711,108.965477 
	C234.842499,110.432396 235.110657,112.506134 236.247559,113.247421 
	C239.144684,115.136360 242.418625,116.453560 245.561615,117.958145 
	C258.614990,124.206932 271.939850,130.200317 282.058563,140.890961 
	C286.527588,145.612579 290.217621,151.345215 293.139130,157.180679 
	C296.047577,162.990097 295.691650,169.202179 290.828888,174.507660 
	C287.782410,170.068939 285.187134,165.775528 282.032898,161.942078 
	C280.758270,160.393036 277.420868,158.500671 276.474091,159.091415 
	C273.159821,161.159439 276.270691,163.194443 277.443024,165.179764 
	C281.906311,172.738235 286.497864,180.227890 290.699493,187.929810 
	C292.004333,190.321640 292.684570,193.277145 292.848419,196.022476 
	C293.198059,201.881683 288.871124,204.684631 283.654327,201.906769 
	C281.096802,200.544937 278.978668,198.252838 276.876373,196.165543 
	C273.617737,192.930191 272.759949,193.289597 270.273865,197.007523 
	C268.696838,199.365921 265.808441,202.286804 263.474426,202.316635 
	C260.858673,202.350052 257.656921,199.884979 255.699036,197.643311 
	C252.919296,194.460678 251.787308,194.117599 249.696701,197.734848 
	C246.977173,202.440323 243.148499,203.757294 238.475281,200.897659 
	C235.865219,199.300491 233.536255,196.946609 231.674911,194.484451 
	C227.669815,189.186508 224.070312,183.583160 220.265289,178.132385 
	C216.236191,172.360641 210.816650,168.289322 204.236572,165.974304 
	C202.824112,165.477371 200.865616,166.532501 199.158646,166.872665 
	C200.024933,168.241745 200.593704,170.400681 201.803986,170.856567 
	C212.803009,174.999710 217.951141,184.543839 223.746124,193.595734 
	C214.161179,206.521164 212.264282,221.422485 211.675720,236.500412 
	C200.863098,237.362350 190.430710,238.094055 180.019806,239.057678 
	C172.619080,239.742676 171.136200,240.754929 169.942230,248.264404 
	C167.335541,264.659271 165.012695,281.107605 163.000488,297.586182 
	C161.227066,312.109222 160.069458,326.706757 158.575150,341.264771 
	C156.061737,365.751251 153.549133,390.238068 150.904648,414.710541 
	C150.441971,418.992157 151.598267,420.665741 156.200058,420.643402 
	C227.344223,420.297913 298.488983,420.067963 369.633850,419.920166 
	C373.960083,419.911163 375.668610,418.605560 375.119476,414.124023 
	C373.522125,401.087524 372.206177,388.016907 370.681641,374.971100 
	C367.806915,350.370850 365.090363,325.748901 361.872559,301.192993 
	C359.543488,283.419159 356.694336,265.706512 353.706909,248.029129 
	C352.434357,240.498901 351.000580,239.600845 343.484222,239.005219 
	C333.743927,238.233337 323.991638,237.613037 314.254333,236.928162 
	C313.807068,231.602142 313.446655,226.648972 312.965546,221.707535 
	C311.634430,208.035599 308.773041,195.113602 296.933716,186.054764 
	C294.798431,184.420944 292.630096,181.789703 295.404083,178.426086 
	C300.841553,171.832718 301.633514,164.326950 299.031036,155.540985 
z"/>
<path fill="#E4E5E9" opacity="1.000000" stroke="none" 
	d="
M526.500000,528.000000 
	C526.000549,352.641754 526.001099,177.283524 526.000854,1.462639 
	C526.666687,1.333334 527.783630,1.548022 527.909058,2.023966 
	C528.196472,3.114905 528.000000,4.333333 528.000000,5.500000 
	C528.000000,178.166672 528.002563,350.833344 527.958618,523.500000 
	C527.958252,525.000061 527.333313,526.500000 526.500000,528.000000 
z"/>
<path fill="#E1E2E6" opacity="1.000000" stroke="none" 
	d="
M1.000000,527.500000 
	C1.336583,527.081238 1.605569,527.262634 1.903479,527.772095 
	C1.666667,528.000000 1.333333,528.000000 1.000000,527.500000 
z"/>
<path fill="#2A2A2A" opacity="1.000000" stroke="none" 
	d="
M299.093750,155.933762 
	C301.633514,164.326950 300.841553,171.832718 295.404083,178.426086 
	C292.630096,181.789703 294.798431,184.420944 296.933716,186.054764 
	C308.773041,195.113602 311.634430,208.035599 312.965546,221.707535 
	C313.446655,226.648972 313.807068,231.602142 314.254333,236.928162 
	C323.991638,237.613037 333.743927,238.233337 343.484222,239.005219 
	C351.000580,239.600845 352.434357,240.498901 353.706909,248.029129 
	C356.694336,265.706512 359.543488,283.419159 361.872559,301.192993 
	C365.090363,325.748901 367.806915,350.370850 370.681641,374.971100 
	C372.206177,388.016907 373.522125,401.087524 375.119476,414.124023 
	C375.668610,418.605560 373.960083,419.911163 369.633850,419.920166 
	C298.488983,420.067963 227.344223,420.297913 156.200058,420.643402 
	C151.598267,420.665741 150.441971,418.992157 150.904648,414.710541 
	C153.549133,390.238068 156.061737,365.751251 158.575150,341.264771 
	C160.069458,326.706757 161.227066,312.109222 163.000488,297.586182 
	C165.012695,281.107605 167.335541,264.659271 169.942230,248.264404 
	C171.136200,240.754929 172.619080,239.742676 180.019806,239.057678 
	C190.430710,238.094055 200.863098,237.362350 211.675720,236.500412 
	C212.264282,221.422485 214.161179,206.521164 223.746124,193.595734 
	C217.951141,184.543839 212.803009,174.999710 201.803986,170.856567 
	C200.593704,170.400681 200.024933,168.241745 199.158646,166.872665 
	C200.865616,166.532501 202.824112,165.477371 204.236572,165.974304 
	C210.816650,168.289322 216.236191,172.360641 220.265289,178.132385 
	C224.070312,183.583160 227.669815,189.186508 231.674911,194.484451 
	C233.536255,196.946609 235.865219,199.300491 238.475281,200.897659 
	C243.148499,203.757294 246.977173,202.440323 249.696701,197.734848 
	C251.787308,194.117599 252.919296,194.460678 255.699036,197.643311 
	C257.656921,199.884979 260.858673,202.350052 263.474426,202.316635 
	C265.808441,202.286804 268.696838,199.365921 270.273865,197.007523 
	C272.759949,193.289597 273.617737,192.930191 276.876373,196.165543 
	C278.978668,198.252838 281.096802,200.544937 283.654327,201.906769 
	C288.871124,204.684631 293.198059,201.881683 292.848419,196.022476 
	C292.684570,193.277145 292.004333,190.321640 290.699493,187.929810 
	C286.497864,180.227890 281.906311,172.738235 277.443024,165.179764 
	C276.270691,163.194443 273.159821,161.159439 276.474091,159.091415 
	C277.420868,158.500671 280.758270,160.393036 282.032898,161.942078 
	C285.187134,165.775528 287.782410,170.068939 290.828888,174.507660 
	C295.691650,169.202179 296.047577,162.990097 293.139130,157.180679 
	C290.217621,151.345215 286.527588,145.612579 282.058563,140.890961 
	C271.939850,130.200317 258.614990,124.206932 245.561615,117.958145 
	C242.418625,116.453560 239.144684,115.136360 236.247559,113.247421 
	C235.110657,112.506134 234.842499,110.432396 234.178711,108.965477 
	C235.663055,108.703094 237.494232,107.743530 238.579483,108.283417 
	C253.707886,115.809555 269.592499,122.015656 282.569977,133.352386 
	C289.691895,139.573898 295.627441,146.598373 299.093750,155.933762 
M175.009491,250.806396 
	C168.736450,305.387817 162.463409,359.969238 156.234497,414.166748 
	C227.911407,414.166748 298.436310,414.166748 369.314026,414.166748 
	C368.455017,407.219940 367.650055,401.135712 366.959442,395.038544 
	C365.406860,381.332336 363.970764,367.612701 362.378235,353.911255 
	C359.941406,332.945587 357.633850,311.961151 354.845703,291.041412 
	C352.960541,276.896515 350.410339,262.837494 347.952057,248.775986 
	C347.704041,247.357468 346.134155,245.171814 345.008331,245.060883 
	C334.812347,244.056046 324.578644,243.434128 313.966888,242.672119 
	C313.966888,251.179764 313.966400,258.811829 313.967163,266.443878 
	C313.967407,268.763123 314.356537,271.755768 310.989441,271.426392 
	C309.916443,271.321442 308.402863,268.306671 308.338837,266.577148 
	C308.051483,258.814148 308.213654,251.034500 308.213654,242.667603 
	C277.677307,242.667603 247.651596,242.667603 217.326080,242.667603 
	C217.326080,244.855972 217.287140,246.495514 217.332977,248.132706 
	C217.510132,254.459534 217.772537,260.784637 217.878128,267.112488 
	C217.917130,269.451202 218.878677,272.780457 215.144165,272.951752 
	C211.407104,273.123169 212.052811,269.851654 211.961731,267.433472 
	C211.917862,266.268860 211.937851,265.101593 211.937576,263.935547 
	C211.935898,256.995544 211.936768,250.055542 211.936768,242.449432 
	C201.423981,243.192429 191.656723,244.030502 181.871780,244.500977 
	C178.004883,244.686890 175.635315,245.969238 175.009491,250.806396 
M278.929962,236.665726 
	C288.542145,236.665726 298.154327,236.665726 307.743164,236.665726 
	C308.999695,221.485931 305.037628,203.298294 299.030487,197.085495 
	C297.990814,203.089783 295.219330,208.472015 288.902344,208.346390 
	C283.890991,208.246719 278.934082,205.408401 273.311157,203.577042 
	C266.810852,209.813400 261.496643,210.211853 252.537903,204.173080 
	C248.772293,207.711670 244.068909,209.328339 239.341766,207.372055 
	C234.904175,205.535568 231.033371,202.329468 226.654526,199.562592 
	C219.337708,210.397964 217.931717,223.217468 217.746155,236.636383 
	C238.078384,236.636383 258.036285,236.636383 278.929962,236.665726 
z"/>
<path fill="#FEFEFE" opacity="1.000000" stroke="none" 
	d="
M175.085022,250.384644 
	C175.635315,245.969238 178.004883,244.686890 181.871780,244.500977 
	C191.656723,244.030502 201.423981,243.192429 211.936768,242.449432 
	C211.936768,250.055542 211.935898,256.995544 211.937576,263.935547 
	C211.937851,265.101593 211.917862,266.268860 211.961731,267.433472 
	C212.052811,269.851654 211.407104,273.123169 215.144165,272.951752 
	C218.878677,272.780457 217.917130,269.451202 217.878128,267.112488 
	C217.772537,260.784637 217.510132,254.459534 217.332977,248.132706 
	C217.287140,246.495514 217.326080,244.855972 217.326080,242.667603 
	C247.651596,242.667603 277.677307,242.667603 308.213654,242.667603 
	C308.213654,251.034500 308.051483,258.814148 308.338837,266.577148 
	C308.402863,268.306671 309.916443,271.321442 310.989441,271.426392 
	C314.356537,271.755768 313.967407,268.763123 313.967163,266.443878 
	C313.966400,258.811829 313.966888,251.179764 313.966888,242.672119 
	C324.578644,243.434128 334.812347,244.056046 345.008331,245.060883 
	C346.134155,245.171814 347.704041,247.357468 347.952057,248.775986 
	C350.410339,262.837494 352.960541,276.896515 354.845703,291.041412 
	C357.633850,311.961151 359.941406,332.945587 362.378235,353.911255 
	C363.970764,367.612701 365.406860,381.332336 366.959442,395.038544 
	C367.650055,401.135712 368.455017,407.219940 369.314026,414.166748 
	C298.436310,414.166748 227.911407,414.166748 156.234497,414.166748 
	C162.463409,359.969238 168.736450,305.387817 175.085022,250.384644 
M217.667480,352.743530 
	C220.084335,353.552246 222.475830,354.953491 224.922821,355.058258 
	C232.187225,355.369263 239.473495,355.169647 247.162384,355.169647 
	C247.162384,363.170166 247.080414,370.629120 247.188751,378.085327 
	C247.272888,383.876495 249.338333,385.895844 255.057175,385.986206 
	C260.050415,386.065155 265.046417,386.049988 270.040192,385.990692 
	C276.240692,385.917114 278.100983,384.097107 278.153870,377.959259 
	C278.218048,370.511108 278.169128,363.061981 278.169128,355.169769 
	C282.378967,355.169769 286.165436,355.170471 289.951904,355.169556 
	C293.947479,355.168640 297.945465,355.253082 301.938019,355.142029 
	C306.744354,355.008331 308.895294,352.840607 308.985352,348.091370 
	C309.067413,343.764374 309.003021,339.434631 309.002991,335.106079 
	C309.002930,325.123474 308.017761,324.162842 297.774658,324.161682 
	C291.354523,324.160950 284.934387,324.161560 278.166595,324.161560 
	C278.166595,315.864746 278.115540,308.234314 278.185394,300.605011 
	C278.228699,295.872009 275.984344,293.464447 271.282471,293.411194 
	C266.288757,293.354584 261.293945,293.346802 256.299988,293.377075 
	C248.941879,293.421692 247.199158,295.169250 247.168091,302.534149 
	C247.138168,309.631195 247.161606,316.728455 247.161606,324.162384 
	C239.099518,324.162384 231.638000,324.116089 224.177460,324.181824 
	C220.423615,324.214874 216.808365,325.092163 216.738739,329.688660 
	C216.625839,337.144836 217.006561,344.608429 217.667480,352.743530 
z"/>
<path fill="#FCFCFC" opacity="1.000000" stroke="none" 
	d="
M278.462097,236.651062 
	C258.036285,236.636383 238.078384,236.636383 217.746155,236.636383 
	C217.931717,223.217468 219.337708,210.397964 226.654526,199.562592 
	C231.033371,202.329468 234.904175,205.535568 239.341766,207.372055 
	C244.068909,209.328339 248.772293,207.711670 252.537903,204.173080 
	C261.496643,210.211853 266.810852,209.813400 273.311157,203.577042 
	C278.934082,205.408401 283.890991,208.246719 288.902344,208.346390 
	C295.219330,208.472015 297.990814,203.089783 299.030487,197.085495 
	C305.037628,203.298294 308.999695,221.485931 307.743164,236.665726 
	C298.154327,236.665726 288.542145,236.665726 278.462097,236.651062 
z"/>
<path fill="#038667" opacity="1.000000" stroke="none" 
	d="
M217.423187,352.406219 
	C217.006561,344.608429 216.625839,337.144836 216.738739,329.688660 
	C216.808365,325.092163 220.423615,324.214874 224.177460,324.181824 
	C231.638000,324.116089 239.099518,324.162384 247.161606,324.162384 
	C247.161606,316.728455 247.138168,309.631195 247.168091,302.534149 
	C247.199158,295.169250 248.941879,293.421692 256.299988,293.377075 
	C261.293945,293.346802 266.288757,293.354584 271.282471,293.411194 
	C275.984344,293.464447 278.228699,295.872009 278.185394,300.605011 
	C278.115540,308.234314 278.166595,315.864746 278.166595,324.161560 
	C284.934387,324.161560 291.354523,324.160950 297.774658,324.161682 
	C308.017761,324.162842 309.002930,325.123474 309.002991,335.106079 
	C309.003021,339.434631 309.067413,343.764374 308.985352,348.091370 
	C308.895294,352.840607 306.744354,355.008331 301.938019,355.142029 
	C297.945465,355.253082 293.947479,355.168640 289.951904,355.169556 
	C286.165436,355.170471 282.378967,355.169769 278.169128,355.169769 
	C278.169128,363.061981 278.218048,370.511108 278.153870,377.959259 
	C278.100983,384.097107 276.240692,385.917114 270.040192,385.990692 
	C265.046417,386.049988 260.050415,386.065155 255.057175,385.986206 
	C249.338333,385.895844 247.272888,383.876495 247.188751,378.085327 
	C247.080414,370.629120 247.162384,363.170166 247.162384,355.169647 
	C239.473495,355.169647 232.187225,355.369263 224.922821,355.058258 
	C222.475830,354.953491 220.084335,353.552246 217.423187,352.406219 
z"/>
</svg>