<svg version="1.1" id="Layer_1" xmlns="http://www.w3.org/2000/svg" xmlns:xlink="http://www.w3.org/1999/xlink" x="0px" y="0px"
	 width="100%" viewBox="0 0 662 593" enable-background="new 0 0 662 593" xml:space="preserve">
<path fill="#FFFFFF" opacity="1.000000" stroke="none" 
	d="
M457.000000,594.000000 
	C304.666687,594.000000 152.833389,594.000000 1.000061,594.000000 
	C1.000041,396.333405 1.000041,198.666794 1.000020,1.000141 
	C221.666565,1.000094 442.333130,1.000094 662.999756,1.000047 
	C662.999878,198.666519 662.999878,396.333038 662.999939,593.999756 
	C594.500000,594.000000 526.000000,594.000000 457.000000,594.000000 
M295.761597,219.743378 
	C299.231262,219.423813 302.739227,218.607986 306.163818,218.872314 
	C319.554077,219.905869 332.919159,221.268387 346.291199,222.533691 
	C354.197357,223.281799 362.099060,224.076813 370.808105,225.103271 
	C380.287140,225.406754 389.878296,224.948532 399.200104,226.320404 
	C404.203247,227.056702 406.980072,225.692780 409.832611,222.471252 
	C410.383728,221.848862 410.988617,221.268784 411.607819,220.712769 
	C421.722595,211.630447 432.357330,203.457458 446.051117,200.411926 
	C455.306915,198.353424 459.339233,199.900162 464.055298,207.689453 
	C476.242279,204.188461 488.314240,202.294418 499.250275,211.632584 
	C499.673889,211.145889 500.168335,210.698227 500.509369,210.154388 
	C500.902466,209.527573 501.160156,208.815842 501.547668,207.989609 
	C476.753723,190.334793 449.436035,183.252167 418.648743,185.820343 
	C436.567505,160.270798 443.859955,133.043610 440.595795,102.685661 
	C413.992889,105.495247 391.897400,116.799194 372.029358,134.937164 
	C368.271942,107.759026 357.061584,85.280884 338.586487,66.343040 
	C319.523590,85.589722 308.821655,108.688919 304.768127,135.854889 
	C284.674286,116.990028 262.114532,105.779503 235.441589,102.651970 
	C233.545197,117.939941 234.737167,132.310577 238.419067,146.408600 
	C242.086243,160.450287 248.499268,173.348816 257.549469,186.132416 
	C241.627289,184.113602 227.289566,185.674088 213.201065,189.429123 
	C199.114487,193.183640 186.116470,199.273193 173.713013,208.769440 
	C175.750366,210.176147 177.256744,212.104218 178.755341,212.098190 
	C185.472992,212.071167 190.803040,215.356598 196.412598,218.321564 
	C211.111755,226.090851 225.939514,233.616638 240.709167,241.252731 
	C247.569565,244.799652 253.571335,244.137878 259.271454,238.496353 
	C269.221008,228.649139 281.298279,222.535950 295.761597,219.743378 
M218.685455,273.807678 
	C242.457077,294.387878 269.618225,309.024994 299.427338,318.531830 
	C322.298828,325.826111 345.156860,324.195221 367.507721,315.513702 
	C383.748322,309.205475 398.827789,300.785889 412.932831,290.572571 
	C435.127136,274.501923 458.274261,260.117371 483.989899,250.207275 
	C485.785675,249.515213 486.956604,247.201584 488.418091,245.641998 
	C486.617798,244.488708 484.926208,242.575989 483.000275,242.300217 
	C464.822052,239.697281 447.557831,243.165054 431.032074,250.822937 
	C421.360321,255.304733 411.784454,259.996216 402.072723,264.388367 
	C390.163177,269.774506 377.895996,273.203003 364.812683,269.037170 
	C356.246185,266.309540 347.776764,263.274567 339.292114,260.296722 
	C338.547150,260.035248 338.012634,259.174133 336.947113,258.192322 
	C358.778656,254.717819 377.478546,244.323166 397.225983,236.863235 
	C398.425903,236.409943 399.101929,234.569916 400.021729,233.375153 
	C398.820160,232.749619 397.674683,231.935791 396.399872,231.556259 
	C395.317596,231.234039 394.084351,231.349091 392.920807,231.379898 
	C372.658936,231.916397 352.717133,229.291214 332.826202,225.719742 
	C325.480103,224.400711 317.941101,223.628693 310.482239,223.567688 
	C291.223785,223.410141 274.777740,230.592224 260.963989,243.937057 
	C255.476974,249.237808 249.072372,250.666199 242.117462,247.552826 
	C230.883850,242.524139 219.682236,237.395340 208.691727,231.862640 
	C201.712738,228.349365 195.197968,223.924423 188.351517,220.131195 
	C186.223740,218.952347 183.691284,218.503922 181.344086,217.721100 
	C181.005066,218.216568 180.666031,218.712036 180.326996,219.207504 
	C189.763962,239.406311 200.810150,258.511292 218.685455,273.807678 
M443.692566,206.265030 
	C437.464600,209.344635 430.676453,211.656784 425.146698,215.692947 
	C417.797241,221.057297 411.147156,227.485016 404.698730,233.956238 
	C392.097076,246.602463 378.462830,257.341370 360.240936,261.559204 
	C367.026642,263.150970 373.850220,264.715759 380.589233,264.410797 
	C392.193756,263.885742 401.932922,257.353577 412.261810,252.800186 
	C426.998199,246.303818 441.240997,238.406464 457.650726,236.546127 
	C458.757172,236.420685 459.888519,235.898163 460.862366,235.316116 
	C470.138275,229.771912 479.411865,224.222092 488.597412,218.530731 
	C489.689026,217.854324 490.932922,216.281967 490.868774,215.198166 
	C490.802643,214.080704 489.406006,212.442551 488.271576,212.103928 
	C485.275391,211.209595 482.111603,210.466797 479.004486,210.425797 
	C466.390259,210.259308 456.039825,216.379700 445.848297,222.841858 
	C444.196869,223.888962 442.421844,224.741104 440.703979,225.683365 
	C440.300690,225.159775 439.897400,224.636200 439.494110,224.112610 
	C443.379852,220.424728 447.368866,216.837372 451.103088,213.001938 
	C452.708130,211.353348 453.784332,209.189896 455.100769,207.260345 
	C452.370300,206.651855 449.653412,205.965057 446.900360,205.486481 
	C446.153931,205.356735 445.298096,205.856201 443.692566,206.265030 
M271.424438,415.116760 
	C288.295410,408.581635 289.727997,384.215942 279.276398,373.197479 
	C269.811798,363.219604 252.110214,363.530762 243.234665,373.997101 
	C236.097107,382.413910 235.187515,396.854797 241.198578,406.322784 
	C247.167725,415.724792 258.007355,419.068085 271.424438,415.116760 
M444.451111,412.990967 
	C441.406952,407.287018 438.362793,401.583069 435.251251,395.752899 
	C436.082153,395.128418 436.705963,394.623383 437.365173,394.169830 
	C443.199677,390.155029 444.418213,384.499451 443.220551,377.934448 
	C442.024811,371.379913 437.479309,368.069092 431.495758,367.478149 
	C424.768524,366.813782 417.925140,367.325348 411.058044,367.325348 
	C411.058044,383.459656 411.058044,399.628235 411.058044,415.816498 
	C413.367554,415.816498 415.317383,415.816498 417.873840,415.816498 
	C417.873840,409.415344 417.873840,403.201172 417.873840,397.059875 
	C427.711365,396.258301 427.714325,396.256775 431.744659,404.060883 
	C433.497803,407.455627 434.705109,411.339691 437.184357,414.072510 
	C438.621826,415.657043 442.093964,415.395691 444.650482,415.964966 
	C444.714661,415.184814 444.778839,414.404633 444.451111,412.990967 
M388.281647,402.750641 
	C394.711395,401.562622 394.604736,407.043884 395.543427,410.559784 
	C396.855743,415.475067 399.247681,417.189331 404.466797,415.472595 
	C398.855072,399.843811 393.324951,384.193939 387.463043,368.669342 
	C387.067810,367.622681 384.144196,367.050232 382.443451,367.140564 
	C381.245636,367.204193 379.516602,368.532013 379.071136,369.695862 
	C375.801880,378.237274 372.796844,386.879822 369.708221,395.490356 
	C367.317474,402.155334 364.926178,408.820068 362.491272,415.607208 
	C369.088440,416.314484 369.088440,416.314484 370.347687,413.219910 
	C374.607635,402.751251 374.607605,402.751251 385.832214,402.750427 
	C386.331879,402.750397 386.831573,402.750488 388.281647,402.750641 
M459.921570,395.696747 
	C461.079559,394.807678 462.194672,393.226379 463.403137,393.151459 
	C468.190460,392.854828 473.007019,393.029572 477.985992,393.029572 
	C477.985992,390.975433 477.985992,389.242889 477.985992,387.104614 
	C471.902954,387.104614 466.137482,387.104614 460.265625,387.104614 
	C460.265625,382.142487 460.265625,377.594543 460.265625,372.586914 
	C468.013062,372.586914 475.420471,372.586914 482.943665,372.586914 
	C482.943665,370.516205 482.943665,368.912170 482.943665,367.256775 
	C472.971619,367.256775 463.232513,367.256775 453.402893,367.256775 
	C453.402893,383.597015 453.402893,399.649506 453.402893,415.774719 
	C463.655823,415.774719 473.585175,415.774719 483.661072,415.774719 
	C483.661072,413.940826 483.661072,412.362854 483.661072,410.177002 
	C475.702087,410.177002 467.980743,410.177002 459.919037,410.177002 
	C459.919037,405.271271 459.919037,400.966949 459.921570,395.696747 
M201.969696,386.140900 
	C205.717300,372.406036 212.434341,369.702759 231.818283,374.331085 
	C231.904999,372.348755 231.988632,370.437073 232.064529,368.702087 
	C218.605789,363.315582 205.754913,366.169586 198.778381,375.791412 
	C192.091904,385.013214 192.473846,399.649841 199.630997,408.462311 
	C206.726700,417.199249 220.398987,419.648163 232.192200,414.091522 
	C232.012497,412.490753 231.820587,410.781281 231.593216,408.755768 
	C229.355026,409.445709 227.653534,410.034454 225.917999,410.494995 
	C213.142609,413.885101 203.441818,407.883820 201.819336,395.431763 
	C201.459946,392.673615 201.816803,389.822144 201.969696,386.140900 
M328.656708,392.427338 
	C328.563202,385.866577 329.804626,379.693207 335.207214,375.379272 
	C342.623932,369.457001 350.707703,371.672485 359.366119,373.921967 
	C358.876343,371.514618 358.259003,368.489868 356.691040,367.870148 
	C349.318085,364.955963 341.755585,365.081573 334.501495,368.626373 
	C322.257416,374.609528 317.455109,390.818054 323.946411,403.998260 
	C329.968292,416.225403 345.911316,420.809631 359.405823,413.989258 
	C359.176178,412.371063 358.933899,410.663849 358.682251,408.890503 
	C339.744507,414.313843 330.153778,409.193848 328.656708,392.427338 
M499.639526,463.999207 
	C534.349121,463.999207 569.058655,463.999207 604.095154,463.999207 
	C603.914795,461.981476 603.790710,460.592499 603.675903,459.308228 
	C566.926880,459.308228 530.572571,459.308228 494.171417,459.308228 
	C494.171417,460.903625 494.171417,462.187805 494.171417,463.765625 
	C495.770386,463.848450 497.224915,463.923798 499.639526,463.999207 
M153.500000,466.999237 
	C162.261337,466.999237 171.022675,466.999237 180.100861,466.999237 
	C179.916168,464.976898 179.789322,463.587952 179.672073,462.304077 
	C143.260345,462.304077 107.244408,462.304077 70.927727,462.304077 
	C71.084091,464.022339 71.210480,465.411255 71.354988,466.999237 
	C98.647606,466.999237 125.573799,466.999237 153.500000,466.999237 
M383.938629,455.252869 
	C382.029938,456.123383 380.121277,456.993896 378.212585,457.864441 
	C378.243805,457.429596 378.275024,456.994720 378.306244,456.559875 
	C373.350800,456.156342 368.395325,455.752777 362.657654,455.285522 
	C362.657654,461.496124 362.586731,467.575012 362.755646,473.647186 
	C362.774780,474.335175 364.143677,474.985626 364.886658,475.653442 
	C365.433807,474.965881 366.412750,474.302887 366.453583,473.586517 
	C366.633118,470.437195 366.657867,467.267273 366.516663,464.114777 
	C366.367401,460.781128 367.990021,459.028442 371.115204,458.864990 
	C374.500427,458.687927 375.782898,460.951050 375.913971,463.964630 
	C376.036713,466.786438 375.792175,469.636108 376.092163,472.432434 
	C376.213043,473.558899 377.352936,474.576019 378.029053,475.642853 
	C378.651672,474.520203 379.704376,473.437286 379.812622,472.267059 
	C380.087250,469.298157 379.342834,466.111145 380.169159,463.360779 
	C380.718506,461.532288 383.106049,459.509033 384.989227,459.121857 
	C386.038849,458.906067 388.587677,461.678162 388.963287,463.425629 
	C389.647858,466.610596 389.095093,470.044220 389.341125,473.353119 
	C389.401031,474.158722 390.557861,474.882751 391.210327,475.644287 
	C391.835449,474.867523 392.949890,474.120972 393.000000,473.308746 
	C393.204407,469.996063 393.182373,466.659576 393.060028,463.338654 
	C392.845276,457.508148 390.865997,455.639496 383.938629,455.252869 
M436.152374,475.282257 
	C436.358551,471.678741 436.786652,468.070374 436.707672,464.473145 
	C436.630646,460.965515 438.092072,458.893738 441.483521,458.884399 
	C444.769409,458.875397 445.969543,461.290649 446.031158,464.301849 
	C446.088959,467.125580 445.920746,469.965607 446.183807,472.767303 
	C446.278412,473.774811 447.339661,474.691589 447.959778,475.649750 
	C448.640503,474.754333 449.753998,473.928070 449.910461,472.948883 
	C450.221161,471.004303 450.009644,468.975433 450.004944,466.981415 
	C449.980804,456.726959 447.439758,454.496613 436.763824,455.808624 
	C436.763824,453.128448 436.945709,450.474152 436.668915,447.868561 
	C436.566925,446.908722 435.382629,446.063904 434.691986,445.166626 
	C434.002808,446.041382 432.731476,446.905396 432.715118,447.792572 
	C432.561768,456.098175 432.528992,464.410217 432.746582,472.712952 
	C432.772705,473.709778 434.494537,474.662140 436.152374,475.282257 
M291.102509,450.659546 
	C291.093811,449.494110 291.295166,448.272675 291.004303,447.182526 
	C290.802551,446.426392 289.923035,445.851074 289.346313,445.194946 
	C288.604401,445.861877 287.227844,446.518311 287.216644,447.197327 
	C287.070831,456.019501 287.069702,464.845703 287.214966,473.667847 
	C287.226135,474.345184 288.614807,474.999847 289.363159,475.665070 
	C289.934692,474.999359 290.918457,474.379761 290.999084,473.659180 
	C291.224915,471.640594 291.077759,469.580322 291.077759,467.192078 
	C295.520721,469.615326 295.786865,476.450165 302.719757,475.541565 
	C300.055115,471.687775 296.256439,468.598236 296.203308,465.445618 
	C296.149414,462.248230 299.795105,458.988495 301.926270,455.587189 
	C295.781799,453.790558 295.732544,460.957123 291.102600,462.199554 
	C291.102600,458.448364 291.102600,455.023712 291.102509,450.659546 
M461.776245,455.193756 
	C454.857697,456.914978 451.613129,462.098267 453.460114,468.478882 
	C455.147003,474.306458 461.388855,477.395691 467.506287,475.217407 
	C468.667786,474.803864 469.494843,473.450989 470.476196,472.531525 
	C460.127380,472.325928 458.538940,471.587189 457.915710,465.672180 
	C462.228821,465.672180 466.495270,465.672180 470.664856,465.672180 
	C471.746918,458.723114 469.417572,455.884247 461.776245,455.193756 
M209.807465,474.804047 
	C211.566086,475.053650 213.571899,475.957764 215.028488,475.407654 
	C217.548416,474.455994 219.675613,473.121399 222.121552,475.471924 
	C222.472992,475.809631 224.063065,475.567139 224.311035,475.143311 
	C224.717361,474.448883 224.676758,473.347443 224.498932,472.484772 
	C224.019485,470.158752 223.264282,467.888245 222.814743,465.557800 
	C222.377991,463.293610 222.590561,460.829346 221.796860,458.724915 
	C220.319733,454.808441 216.706802,454.709717 213.374817,455.414551 
	C211.713272,455.766022 210.315536,457.364624 208.798477,458.399109 
	C212.555511,459.888062 216.191437,456.847809 218.316483,461.286713 
	C206.104156,466.316895 204.920990,468.035950 209.807465,474.804047 
M333.587433,467.338593 
	C334.203094,469.729919 334.093048,473.055878 335.635559,474.253479 
	C337.224640,475.487305 340.427429,474.586090 342.916962,474.737427 
	C344.492859,474.833221 346.050446,475.209686 347.626190,475.336731 
	C348.550171,475.411163 349.792145,475.574371 350.337494,475.083099 
	C350.805756,474.661346 350.662262,473.330994 350.484039,472.465240 
	C350.005005,470.138245 349.262299,467.864197 348.813660,465.532684 
	C348.377930,463.268372 348.611115,460.785950 347.781830,458.705688 
	C346.135956,454.576782 342.339294,454.725769 338.861664,455.506409 
	C337.354034,455.844818 336.130859,457.450409 334.778503,458.480438 
	C335.069275,458.911926 335.360016,459.343445 335.650757,459.774933 
	C338.605438,459.746613 342.202301,456.880829 344.094696,460.843964 
	C340.556610,462.858185 337.232391,464.750610 333.587433,467.338593 
M305.566406,459.321350 
	C303.103180,464.032013 303.059235,468.619232 306.742004,472.696503 
	C309.883057,476.174042 314.051392,476.379333 318.235443,475.240234 
	C319.302216,474.949829 320.033356,473.426605 320.918701,472.469757 
	C319.779633,472.239777 318.605316,471.704437 317.507385,471.831177 
	C311.836639,472.485687 309.693695,471.227997 308.347565,465.688873 
	C312.859375,465.688873 317.250946,465.688873 321.586121,465.688873 
	C322.820251,461.008972 321.425232,457.778229 317.690857,456.054871 
	C313.333466,454.044006 309.276062,454.982941 305.566406,459.321350 
M246.959000,455.222046 
	C240.780899,455.920990 237.682144,462.603760 239.331497,468.569733 
	C240.874252,474.150055 246.870041,477.220276 252.894562,475.376190 
	C254.178040,474.983307 255.144318,473.554108 256.256714,472.602325 
	C246.099106,472.343811 244.634933,471.662109 243.408798,465.569946 
	C247.908463,465.569946 252.306458,465.569946 256.629822,465.569946 
	C257.390350,458.240631 254.936386,455.540436 246.959000,455.222046 
M398.216492,472.161865 
	C398.804382,472.745605 399.319489,473.435791 399.992065,473.895660 
	C404.110809,476.711853 409.482697,476.359955 412.829132,473.111237 
	C416.138550,469.898468 416.787903,463.947784 414.291504,459.709320 
	C412.085236,455.963409 407.412292,454.218475 403.000824,455.493225 
	C398.532898,456.784302 395.642578,461.193695 396.175476,466.367126 
	C396.356415,468.123688 397.227509,469.809235 398.216492,472.161865 
M200.286316,458.869568 
	C201.822281,458.626831 203.358231,458.384094 204.894196,458.141357 
	C204.293701,457.276947 203.885208,456.022705 203.059311,455.615936 
	C199.586365,453.905457 193.750336,455.539551 191.248123,458.701111 
	C188.468964,462.212708 188.336243,468.137634 190.954376,471.817688 
	C193.416351,475.278259 198.656296,476.972015 202.554077,475.269714 
	C203.619781,474.804291 204.269363,473.386047 206.079727,471.273193 
	C199.795197,471.985565 194.540512,473.398560 193.394073,466.715210 
	C192.618668,462.194824 194.744583,459.357269 200.286316,458.869568 
M421.223541,450.861908 
	C420.012115,454.504028 417.666016,457.756836 420.659576,462.045502 
	C421.986023,463.945801 420.780518,467.538300 420.932434,470.351440 
	C421.152924,474.433899 423.684967,476.471893 427.519989,475.675964 
	C428.314880,475.510956 428.970276,474.673737 429.689972,474.146332 
	C429.116821,473.497040 428.592712,472.344818 427.962311,472.283417 
	C424.832184,471.978424 424.879456,469.852936 424.906525,467.598114 
	C424.940033,464.807617 424.914581,462.016449 424.914581,459.842682 
	C427.006866,458.723114 428.465393,457.942688 429.923920,457.162262 
	C428.508331,456.182220 427.092743,455.202179 425.677155,454.222137 
	C425.809570,454.050842 425.942017,453.879547 426.074432,453.708252 
	C424.661255,452.589417 423.248077,451.470551 421.223541,450.861908 
M269.547516,467.143799 
	C269.655853,470.226379 268.903900,473.718597 272.689758,475.257782 
	C273.545166,475.605530 274.783020,475.012634 275.844818,474.852753 
	C275.563721,474.028320 275.270172,473.207855 275.004181,472.378571 
	C274.479218,470.741943 273.581818,469.113861 273.524536,467.458466 
	C273.335663,462.000275 273.611481,456.524414 273.368744,451.070465 
	C273.281067,449.100281 272.231842,447.172852 271.621429,445.225922 
	C270.930054,447.091705 269.745361,448.930695 269.642395,450.828369 
	C269.364685,455.946838 269.547821,461.090271 269.547516,467.143799 
M304.474396,397.038208 
	C307.593719,397.038208 310.713074,397.038208 314.010010,397.038208 
	C314.010010,394.972015 314.010010,393.249939 314.010010,391.462433 
	C306.799805,391.462433 299.910034,391.462433 292.754517,391.462433 
	C292.754517,393.399841 292.754517,395.092010 292.754517,397.038208 
	C296.565857,397.038208 300.031067,397.038208 304.474396,397.038208 
M231.898239,465.769714 
	C231.598557,462.631683 232.235352,460.295044 235.915207,459.462860 
	C236.890503,459.242340 237.460373,457.228973 238.216400,456.038818 
	C237.785172,455.669952 237.353928,455.301117 236.922699,454.932251 
	C235.083466,455.809082 233.244232,456.685913 231.862381,457.344696 
	C230.861847,456.565155 230.038864,455.923950 229.215881,455.282745 
	C228.693420,455.995178 227.735535,456.697144 227.718109,457.421692 
	C227.590103,462.743774 227.569565,468.072998 227.739731,473.392761 
	C227.764709,474.173401 228.977692,474.916077 229.640991,475.676331 
	C230.390915,474.841339 231.645325,474.084198 231.788651,473.155609 
	C232.114822,471.042145 231.895554,468.844543 231.898239,465.769714 
M476.988251,455.369659 
	C476.233795,455.789490 474.834137,456.192230 474.822479,456.631805 
	C474.669006,462.419373 474.654175,468.213531 474.793243,474.001526 
	C474.807007,474.575897 476.230530,475.693756 476.699463,475.553711 
	C477.546295,475.300842 478.698425,474.346375 478.782562,473.581482 
	C479.052460,471.127472 478.990906,468.621460 478.873627,466.144226 
	C478.721466,462.930481 478.968231,460.261475 482.995850,459.447357 
	C483.917358,459.261078 484.457123,457.186432 485.172546,455.980927 
	C484.743317,455.634613 484.314087,455.288330 483.884857,454.942017 
	C482.058929,455.810516 480.233002,456.679016 478.393127,457.551117 
	C478.127472,456.949646 477.861816,456.348145 476.988251,455.369659 
M282.074615,475.363708 
	C282.308929,469.454559 282.615601,463.546326 282.690826,457.635162 
	C282.700836,456.848969 281.535797,456.047852 280.914917,455.253632 
	C280.239075,456.147858 279.014496,457.020721 278.978760,457.939789 
	C278.785461,462.911743 278.760223,467.901062 278.994873,472.869415 
	C279.040558,473.837280 280.490967,474.738800 282.074615,475.363708 
z"/>
<path fill="#F69324" opacity="1.000000" stroke="none" 
	d="
M294.951935,219.517761 
	C281.298279,222.535950 269.221008,228.649139 259.271454,238.496353 
	C253.571335,244.137878 247.569565,244.799652 240.709167,241.252731 
	C225.939514,233.616638 211.111755,226.090851 196.412598,218.321564 
	C190.803040,215.356598 185.472992,212.071167 178.755341,212.098190 
	C177.256744,212.104218 175.750366,210.176147 173.713013,208.769440 
	C186.116470,199.273193 199.114487,193.183640 213.201065,189.429123 
	C227.289566,185.674088 241.627289,184.113602 257.549469,186.132416 
	C248.499268,173.348816 242.086243,160.450287 238.419067,146.408600 
	C234.737167,132.310577 233.545197,117.939941 235.441589,102.651970 
	C262.114532,105.779503 284.674286,116.990028 304.768127,135.854889 
	C308.821655,108.688919 319.523590,85.589722 338.586487,66.343040 
	C357.061584,85.280884 368.271942,107.759026 372.029358,134.937164 
	C391.897400,116.799194 413.992889,105.495247 440.595795,102.685661 
	C443.859955,133.043610 436.567505,160.270798 418.648743,185.820343 
	C449.436035,183.252167 476.753723,190.334793 501.547668,207.989609 
	C501.160156,208.815842 500.902466,209.527573 500.509369,210.154388 
	C500.168335,210.698227 499.673889,211.145889 499.250275,211.632584 
	C488.314240,202.294418 476.242279,204.188461 464.055298,207.689453 
	C459.339233,199.900162 455.306915,198.353424 446.051117,200.411926 
	C432.357330,203.457458 421.722595,211.630447 411.607819,220.712769 
	C410.988617,221.268784 410.383728,221.848862 409.832611,222.471252 
	C406.980072,225.692780 404.203247,227.056702 399.200104,226.320404 
	C389.878296,224.948532 380.287140,225.406754 370.628021,224.725403 
	C389.093018,215.494965 405.550110,203.915192 418.374329,185.807251 
	C405.977570,187.150635 394.895264,189.680893 384.719788,194.828201 
	C374.668365,199.912750 365.135254,206.021942 357.757050,210.300247 
	C361.317444,200.174667 365.978882,187.665909 370.102356,174.982254 
	C374.297028,162.079575 373.080017,148.800339 371.690369,135.201447 
	C363.912628,144.359512 356.121307,153.379120 350.592926,163.620285 
	C345.052887,173.883102 341.771606,185.365219 337.368927,196.649704 
	C332.312378,173.338150 322.051208,153.003525 304.367828,135.524536 
	C303.005615,155.182083 304.389801,173.278198 311.356720,190.542404 
	C314.451111,198.210373 318.430725,205.521118 322.004028,212.997208 
	C321.999573,213.000397 321.990234,213.009293 321.640625,212.980194 
	C306.967712,201.937134 291.347046,193.450485 273.786926,188.847351 
	C268.827332,187.547272 263.761261,186.653427 258.744019,185.573257 
	C258.525513,186.079956 258.306976,186.586670 258.088470,187.093369 
	C260.810364,190.313568 263.142212,193.999741 266.327698,196.666092 
	C275.687317,204.500458 285.386017,211.929825 294.951935,219.517761 
z"/>
<path fill="#038767" opacity="1.000000" stroke="none" 
	d="
M218.428741,273.565613 
	C200.810150,258.511292 189.763962,239.406311 180.326996,219.207504 
	C180.666031,218.712036 181.005066,218.216568 181.344086,217.721100 
	C183.691284,218.503922 186.223740,218.952347 188.351517,220.131195 
	C195.197968,223.924423 201.712738,228.349365 208.691727,231.862640 
	C219.682236,237.395340 230.883850,242.524139 242.117462,247.552826 
	C249.072372,250.666199 255.476974,249.237808 260.963989,243.937057 
	C274.777740,230.592224 291.223785,223.410141 310.482239,223.567688 
	C317.941101,223.628693 325.480103,224.400711 332.826202,225.719742 
	C352.717133,229.291214 372.658936,231.916397 392.920807,231.379898 
	C394.084351,231.349091 395.317596,231.234039 396.399872,231.556259 
	C397.674683,231.935791 398.820160,232.749619 400.021729,233.375153 
	C399.101929,234.569916 398.425903,236.409943 397.225983,236.863235 
	C377.478546,244.323166 358.778656,254.717819 336.947113,258.192322 
	C338.012634,259.174133 338.547150,260.035248 339.292114,260.296722 
	C347.776764,263.274567 356.246185,266.309540 364.812683,269.037170 
	C377.895996,273.203003 390.163177,269.774506 402.072723,264.388367 
	C411.784454,259.996216 421.360321,255.304733 431.032074,250.822937 
	C447.557831,243.165054 464.822052,239.697281 483.000275,242.300217 
	C484.926208,242.575989 486.617798,244.488708 488.418091,245.641998 
	C486.956604,247.201584 485.785675,249.515213 483.989899,250.207275 
	C458.274261,260.117371 435.127136,274.501923 412.932831,290.572571 
	C398.827789,300.785889 383.748322,309.205475 367.507721,315.513702 
	C345.156860,324.195221 322.298828,325.826111 299.427338,318.531830 
	C269.618225,309.024994 242.457077,294.387878 218.428741,273.565613 
z"/>
<path fill="#F26526" opacity="1.000000" stroke="none" 
	d="
M295.356750,219.630569 
	C285.386017,211.929825 275.687317,204.500458 266.327698,196.666092 
	C263.142212,193.999741 260.810364,190.313568 258.088470,187.093369 
	C258.306976,186.586670 258.525513,186.079956 258.744019,185.573257 
	C263.761261,186.653427 268.827332,187.547272 273.786926,188.847351 
	C291.347046,193.450485 306.967712,201.937134 321.650635,213.220901 
	C322.134552,213.764359 322.258881,214.038010 322.383209,214.311646 
	C322.507111,214.223709 322.743011,214.064545 322.738892,214.058060 
	C322.508087,213.695328 322.257324,213.345306 322.008514,212.994019 
	C318.430725,205.521118 314.451111,198.210373 311.356720,190.542404 
	C304.389801,173.278198 303.005615,155.182083 304.367828,135.524536 
	C322.051208,153.003525 332.312378,173.338150 337.368927,196.649704 
	C341.771606,185.365219 345.052887,173.883102 350.592926,163.620285 
	C356.121307,153.379120 363.912628,144.359512 371.690369,135.201447 
	C373.080017,148.800339 374.297028,162.079575 370.102356,174.982254 
	C365.978882,187.665909 361.317444,200.174667 357.757050,210.300247 
	C365.135254,206.021942 374.668365,199.912750 384.719788,194.828201 
	C394.895264,189.680893 405.977570,187.150635 418.374329,185.807251 
	C405.550110,203.915192 389.093018,215.494965 370.225342,224.599136 
	C362.099060,224.076813 354.197357,223.281799 346.291199,222.533691 
	C332.919159,221.268387 319.554077,219.905869 306.163818,218.872314 
	C302.739227,218.607986 299.231262,219.423813 295.356750,219.630569 
z"/>
<path fill="#08896A" opacity="1.000000" stroke="none" 
	d="
M444.092529,206.165955 
	C445.298096,205.856201 446.153931,205.356735 446.900360,205.486481 
	C449.653412,205.965057 452.370300,206.651855 455.100769,207.260345 
	C453.784332,209.189896 452.708130,211.353348 451.103088,213.001938 
	C447.368866,216.837372 443.379852,220.424728 439.494110,224.112610 
	C439.897400,224.636200 440.300690,225.159775 440.703979,225.683365 
	C442.421844,224.741104 444.196869,223.888962 445.848297,222.841858 
	C456.039825,216.379700 466.390259,210.259308 479.004486,210.425797 
	C482.111603,210.466797 485.275391,211.209595 488.271576,212.103928 
	C489.406006,212.442551 490.802643,214.080704 490.868774,215.198166 
	C490.932922,216.281967 489.689026,217.854324 488.597412,218.530731 
	C479.411865,224.222092 470.138275,229.771912 460.862366,235.316116 
	C459.888519,235.898163 458.757172,236.420685 457.650726,236.546127 
	C441.240997,238.406464 426.998199,246.303818 412.261810,252.800186 
	C401.932922,257.353577 392.193756,263.885742 380.589233,264.410797 
	C373.850220,264.715759 367.026642,263.150970 360.240936,261.559204 
	C378.462830,257.341370 392.097076,246.602463 404.698730,233.956238 
	C411.147156,227.485016 417.797241,221.057297 425.146698,215.692947 
	C430.676453,211.656784 437.464600,209.344635 444.092529,206.165955 
M439.159119,226.291855 
	C438.688843,226.174835 438.222168,226.025574 437.744781,225.972168 
	C437.664307,225.963150 437.537506,226.367584 437.432098,226.580963 
	C437.831848,226.701645 438.231598,226.822311 439.159119,226.291855 
z"/>
<path fill="#09896B" opacity="1.000000" stroke="none" 
	d="
M271.060364,415.268799 
	C258.007355,419.068085 247.167725,415.724792 241.198578,406.322784 
	C235.187515,396.854797 236.097107,382.413910 243.234665,373.997101 
	C252.110214,363.530762 269.811798,363.219604 279.276398,373.197479 
	C289.727997,384.215942 288.295410,408.581635 271.060364,415.268799 
M278.255951,387.368866 
	C276.729980,378.707764 272.455597,373.743896 265.224335,372.235107 
	C258.335815,370.797821 251.228867,373.498444 247.784332,379.150269 
	C243.802155,385.684326 243.550186,392.754333 245.890045,399.831573 
	C248.800064,408.633423 257.268585,412.910217 266.184937,410.441772 
	C275.149261,407.960114 279.674316,399.717224 278.255951,387.368866 
z"/>
<path fill="#0A8A6B" opacity="1.000000" stroke="none" 
	d="
M444.647064,413.307739 
	C444.778839,414.404633 444.714661,415.184814 444.650482,415.964966 
	C442.093964,415.395691 438.621826,415.657043 437.184357,414.072510 
	C434.705109,411.339691 433.497803,407.455627 431.744659,404.060883 
	C427.714325,396.256775 427.711365,396.258301 417.873840,397.059875 
	C417.873840,403.201172 417.873840,409.415344 417.873840,415.816498 
	C415.317383,415.816498 413.367554,415.816498 411.058044,415.816498 
	C411.058044,399.628235 411.058044,383.459656 411.058044,367.325348 
	C417.925140,367.325348 424.768524,366.813782 431.495758,367.478149 
	C437.479309,368.069092 442.024811,371.379913 443.220551,377.934448 
	C444.418213,384.499451 443.199677,390.155029 437.365173,394.169830 
	C436.705963,394.623383 436.082153,395.128418 435.251251,395.752899 
	C438.362793,401.583069 441.406952,407.287018 444.647064,413.307739 
M417.766205,378.543762 
	C417.766205,382.605347 417.766205,386.666931 417.766205,391.145111 
	C424.258881,390.278809 431.310547,393.408020 435.082764,386.762665 
	C436.564423,384.152466 436.546906,379.178070 434.988647,376.651825 
	C431.023407,370.223389 424.093872,373.472900 417.766174,372.682709 
	C417.766174,374.673462 417.766174,376.114075 417.766205,378.543762 
z"/>
<path fill="#0B8A6C" opacity="1.000000" stroke="none" 
	d="
M387.806458,402.750580 
	C386.831573,402.750488 386.331879,402.750397 385.832214,402.750427 
	C374.607605,402.751251 374.607635,402.751251 370.347687,413.219910 
	C369.088440,416.314484 369.088440,416.314484 362.491272,415.607208 
	C364.926178,408.820068 367.317474,402.155334 369.708221,395.490356 
	C372.796844,386.879822 375.801880,378.237274 379.071136,369.695862 
	C379.516602,368.532013 381.245636,367.204193 382.443451,367.140564 
	C384.144196,367.050232 387.067810,367.622681 387.463043,368.669342 
	C393.324951,384.193939 398.855072,399.843811 404.466797,415.472595 
	C399.247681,417.189331 396.855743,415.475067 395.543427,410.559784 
	C394.604736,407.043884 394.711395,401.562622 387.806458,402.750580 
M381.474457,382.130798 
	C379.796753,386.923370 378.119019,391.715942 376.369629,396.713257 
	C381.350555,396.713257 385.715057,396.713257 390.669037,396.713257 
	C388.286713,390.057861 386.064362,383.849396 383.541565,376.801483 
	C382.699982,378.992401 382.228973,380.218567 381.474457,382.130798 
z"/>
<path fill="#0F8C6E" opacity="1.000000" stroke="none" 
	d="
M459.920288,396.179688 
	C459.919037,400.966949 459.919037,405.271271 459.919037,410.177002 
	C467.980743,410.177002 475.702087,410.177002 483.661072,410.177002 
	C483.661072,412.362854 483.661072,413.940826 483.661072,415.774719 
	C473.585175,415.774719 463.655823,415.774719 453.402893,415.774719 
	C453.402893,399.649506 453.402893,383.597015 453.402893,367.256775 
	C463.232513,367.256775 472.971619,367.256775 482.943665,367.256775 
	C482.943665,368.912170 482.943665,370.516205 482.943665,372.586914 
	C475.420471,372.586914 468.013062,372.586914 460.265625,372.586914 
	C460.265625,377.594543 460.265625,382.142487 460.265625,387.104614 
	C466.137482,387.104614 471.902954,387.104614 477.985992,387.104614 
	C477.985992,389.242889 477.985992,390.975433 477.985992,393.029572 
	C473.007019,393.029572 468.190460,392.854828 463.403137,393.151459 
	C462.194672,393.226379 461.079559,394.807678 459.920288,396.179688 
z"/>
<path fill="#0B8A6C" opacity="1.000000" stroke="none" 
	d="
M201.906769,386.577271 
	C201.816803,389.822144 201.459946,392.673615 201.819336,395.431763 
	C203.441818,407.883820 213.142609,413.885101 225.917999,410.494995 
	C227.653534,410.034454 229.355026,409.445709 231.593216,408.755768 
	C231.820587,410.781281 232.012497,412.490753 232.192200,414.091522 
	C220.398987,419.648163 206.726700,417.199249 199.630997,408.462311 
	C192.473846,399.649841 192.091904,385.013214 198.778381,375.791412 
	C205.754913,366.169586 218.605789,363.315582 232.064529,368.702087 
	C231.988632,370.437073 231.904999,372.348755 231.818283,374.331085 
	C212.434341,369.702759 205.717300,372.406036 201.906769,386.577271 
z"/>
<path fill="#0B8A6C" opacity="1.000000" stroke="none" 
	d="
M328.705078,392.876709 
	C330.153778,409.193848 339.744507,414.313843 358.682251,408.890503 
	C358.933899,410.663849 359.176178,412.371063 359.405823,413.989258 
	C345.911316,420.809631 329.968292,416.225403 323.946411,403.998260 
	C317.455109,390.818054 322.257416,374.609528 334.501495,368.626373 
	C341.755585,365.081573 349.318085,364.955963 356.691040,367.870148 
	C358.259003,368.489868 358.876343,371.514618 359.366119,373.921967 
	C350.707703,371.672485 342.623932,369.457001 335.207214,375.379272 
	C329.804626,379.693207 328.563202,385.866577 328.705078,392.876709 
z"/>
<path fill="#F26425" opacity="1.000000" stroke="none" 
	d="
M499.159485,463.999176 
	C497.224915,463.923798 495.770386,463.848450 494.171417,463.765625 
	C494.171417,462.187805 494.171417,460.903625 494.171417,459.308228 
	C530.572571,459.308228 566.926880,459.308228 603.675903,459.308228 
	C603.790710,460.592499 603.914795,461.981476 604.095154,463.999207 
	C569.058655,463.999207 534.349121,463.999207 499.159485,463.999176 
z"/>
<path fill="#F26425" opacity="1.000000" stroke="none" 
	d="
M153.000000,466.999237 
	C125.573799,466.999237 98.647606,466.999237 71.354988,466.999237 
	C71.210480,465.411255 71.084091,464.022339 70.927727,462.304077 
	C107.244408,462.304077 143.260345,462.304077 179.672073,462.304077 
	C179.789322,463.587952 179.916168,464.976898 180.100861,466.999237 
	C171.022675,466.999237 162.261337,466.999237 153.000000,466.999237 
z"/>
<path fill="#F4763F" opacity="1.000000" stroke="none" 
	d="
M384.332947,455.231079 
	C390.865997,455.639496 392.845276,457.508148 393.060028,463.338654 
	C393.182373,466.659576 393.204407,469.996063 393.000000,473.308746 
	C392.949890,474.120972 391.835449,474.867523 391.210327,475.644287 
	C390.557861,474.882751 389.401031,474.158722 389.341125,473.353119 
	C389.095093,470.044220 389.647858,466.610596 388.963287,463.425629 
	C388.587677,461.678162 386.038849,458.906067 384.989227,459.121857 
	C383.106049,459.509033 380.718506,461.532288 380.169159,463.360779 
	C379.342834,466.111145 380.087250,469.298157 379.812622,472.267059 
	C379.704376,473.437286 378.651672,474.520203 378.029053,475.642883 
	C377.352936,474.576019 376.213043,473.558899 376.092163,472.432434 
	C375.792175,469.636108 376.036713,466.786438 375.913971,463.964630 
	C375.782898,460.951050 374.500427,458.687927 371.115204,458.864990 
	C367.990021,459.028442 366.367401,460.781128 366.516663,464.114777 
	C366.657867,467.267273 366.633118,470.437195 366.453583,473.586517 
	C366.412750,474.302887 365.433807,474.965881 364.886658,475.653442 
	C364.143677,474.985626 362.774780,474.335175 362.755646,473.647186 
	C362.586731,467.575012 362.657654,461.496124 362.657654,455.285522 
	C368.395325,455.752777 373.350800,456.156342 378.306244,456.559875 
	C378.275024,456.994720 378.243805,457.429596 378.212585,457.864441 
	C380.121277,456.993896 382.029938,456.123383 384.332947,455.231079 
z"/>
<path fill="#F47841" opacity="1.000000" stroke="none" 
	d="
M435.791382,475.458679 
	C434.494537,474.662140 432.772705,473.709778 432.746582,472.712952 
	C432.528992,464.410217 432.561768,456.098175 432.715118,447.792572 
	C432.731476,446.905396 434.002808,446.041382 434.692017,445.166626 
	C435.382629,446.063904 436.566925,446.908722 436.668915,447.868561 
	C436.945709,450.474152 436.763824,453.128448 436.763824,455.808624 
	C447.439758,454.496613 449.980804,456.726959 450.004944,466.981415 
	C450.009644,468.975433 450.221161,471.004303 449.910461,472.948883 
	C449.753998,473.928070 448.640503,474.754333 447.959778,475.649780 
	C447.339661,474.691589 446.278412,473.774811 446.183807,472.767303 
	C445.920746,469.965607 446.088959,467.125580 446.031158,464.301849 
	C445.969543,461.290649 444.769409,458.875397 441.483521,458.884399 
	C438.092072,458.893738 436.630646,460.965515 436.707672,464.473145 
	C436.786652,468.070374 436.358551,471.678741 435.791382,475.458679 
z"/>
<path fill="#F47841" opacity="1.000000" stroke="none" 
	d="
M291.102539,451.129303 
	C291.102600,455.023712 291.102600,458.448364 291.102600,462.199554 
	C295.732544,460.957123 295.781799,453.790558 301.926270,455.587189 
	C299.795105,458.988495 296.149414,462.248230 296.203308,465.445618 
	C296.256439,468.598236 300.055115,471.687775 302.719757,475.541565 
	C295.786865,476.450165 295.520721,469.615326 291.077759,467.192078 
	C291.077759,469.580322 291.224915,471.640594 290.999084,473.659180 
	C290.918457,474.379761 289.934692,474.999359 289.363159,475.665070 
	C288.614807,474.999847 287.226135,474.345184 287.214966,473.667847 
	C287.069702,464.845703 287.070831,456.019501 287.216644,447.197327 
	C287.227844,446.518311 288.604401,445.861877 289.346313,445.194946 
	C289.923035,445.851074 290.802551,446.426392 291.004303,447.182526 
	C291.295166,448.272675 291.093811,449.494110 291.102539,451.129303 
z"/>
<path fill="#F47A44" opacity="1.000000" stroke="none" 
	d="
M462.173401,455.189850 
	C469.417572,455.884247 471.746918,458.723114 470.664856,465.672180 
	C466.495270,465.672180 462.228821,465.672180 457.915710,465.672180 
	C458.538940,471.587189 460.127380,472.325928 470.476196,472.531525 
	C469.494843,473.450989 468.667786,474.803864 467.506287,475.217407 
	C461.388855,477.395691 455.147003,474.306458 453.460114,468.478882 
	C451.613129,462.098267 454.857697,456.914978 462.173401,455.189850 
M458.840027,460.375092 
	C459.101624,461.297546 459.287415,462.984467 459.637054,463.019135 
	C462.014740,463.254852 464.426971,463.142426 467.366333,463.142426 
	C465.678619,457.898407 462.814880,458.143280 458.840027,460.375092 
z"/>
<path fill="#F47B45" opacity="1.000000" stroke="none" 
	d="
M209.505829,474.568054 
	C204.920990,468.035950 206.104156,466.316895 218.316483,461.286713 
	C216.191437,456.847809 212.555511,459.888062 208.798477,458.399109 
	C210.315536,457.364624 211.713272,455.766022 213.374817,455.414551 
	C216.706802,454.709717 220.319733,454.808441 221.796860,458.724915 
	C222.590561,460.829346 222.377991,463.293610 222.814743,465.557800 
	C223.264282,467.888245 224.019485,470.158752 224.498932,472.484772 
	C224.676758,473.347443 224.717361,474.448883 224.311035,475.143311 
	C224.063065,475.567139 222.472992,475.809631 222.121552,475.471924 
	C219.675613,473.121399 217.548416,474.455994 215.028488,475.407654 
	C213.571899,475.957764 211.566086,475.053650 209.505829,474.568054 
M211.199142,468.724609 
	C211.069565,472.109436 213.088593,472.650787 215.695526,471.839081 
	C218.715256,470.898834 219.776123,468.901093 217.841293,464.989746 
	C215.627014,466.028595 213.556305,467.000122 211.199142,468.724609 
z"/>
<path fill="#F47B45" opacity="1.000000" stroke="none" 
	d="
M333.747803,466.990845 
	C337.232391,464.750610 340.556610,462.858185 344.094696,460.843964 
	C342.202301,456.880829 338.605438,459.746613 335.650757,459.774933 
	C335.360016,459.343445 335.069275,458.911926 334.778503,458.480438 
	C336.130859,457.450409 337.354034,455.844818 338.861664,455.506409 
	C342.339294,454.725769 346.135956,454.576782 347.781830,458.705688 
	C348.611115,460.785950 348.377930,463.268372 348.813660,465.532684 
	C349.262299,467.864197 350.005005,470.138245 350.484039,472.465240 
	C350.662262,473.330994 350.805756,474.661346 350.337494,475.083099 
	C349.792145,475.574371 348.550171,475.411163 347.626190,475.336731 
	C346.050446,475.209686 344.492859,474.833221 342.916962,474.737427 
	C340.427429,474.586090 337.224640,475.487305 335.635559,474.253479 
	C334.093048,473.055878 334.203094,469.729919 333.747803,466.990845 
M344.899750,467.368164 
	C342.594299,464.045532 340.099609,465.891296 338.046936,467.472260 
	C337.401215,467.969666 337.933716,469.996765 337.926941,471.323761 
	C340.088348,470.898987 342.267853,470.542053 344.391327,469.975128 
	C344.703583,469.891785 344.749786,468.811829 344.899750,467.368164 
z"/>
<path fill="#F47C47" opacity="1.000000" stroke="none" 
	d="
M305.795746,459.005280 
	C309.276062,454.982941 313.333466,454.044006 317.690857,456.054871 
	C321.425232,457.778229 322.820251,461.008972 321.586121,465.688873 
	C317.250946,465.688873 312.859375,465.688873 308.347565,465.688873 
	C309.693695,471.227997 311.836639,472.485687 317.507385,471.831177 
	C318.605316,471.704437 319.779633,472.239777 320.918701,472.469788 
	C320.033356,473.426605 319.302216,474.949829 318.235443,475.240234 
	C314.051392,476.379333 309.883057,476.174042 306.742004,472.696503 
	C303.059235,468.619232 303.103180,464.032013 305.795746,459.005280 
M310.800964,463.182190 
	C313.093750,463.182190 315.386505,463.182190 317.854828,463.182190 
	C317.592163,458.933044 315.159119,458.431122 312.264832,458.894287 
	C309.714813,459.302399 309.300568,460.212311 310.800964,463.182190 
z"/>
<path fill="#F47C47" opacity="1.000000" stroke="none" 
	d="
M247.358917,455.201843 
	C254.936386,455.540436 257.390350,458.240631 256.629822,465.569946 
	C252.306458,465.569946 247.908463,465.569946 243.408798,465.569946 
	C244.634933,471.662109 246.099106,472.343811 256.256714,472.602325 
	C255.144318,473.554108 254.178040,474.983307 252.894562,475.376190 
	C246.870041,477.220276 240.874252,474.150055 239.331497,468.569733 
	C237.682144,462.603760 240.780899,455.920990 247.358917,455.201843 
M244.184509,460.984222 
	C244.726761,461.716492 245.205917,463.011139 245.822586,463.080353 
	C248.085266,463.334259 250.393631,463.181000 252.846985,463.181000 
	C251.286530,458.159637 249.633362,457.670624 244.184509,460.984222 
z"/>
<path fill="#F47841" opacity="1.000000" stroke="none" 
	d="
M397.999847,471.844543 
	C397.227509,469.809235 396.356415,468.123688 396.175476,466.367126 
	C395.642578,461.193695 398.532898,456.784302 403.000824,455.493225 
	C407.412292,454.218475 412.085236,455.963409 414.291504,459.709320 
	C416.787903,463.947784 416.138550,469.898468 412.829132,473.111237 
	C409.482697,476.359955 404.110809,476.711853 399.992065,473.895660 
	C399.319489,473.435791 398.804382,472.745605 397.999847,471.844543 
M409.429047,459.824982 
	C406.236298,458.068848 402.650024,457.977570 401.372955,461.467407 
	C400.410309,464.098053 401.097595,467.822723 402.292603,470.507538 
	C402.759979,471.557556 407.076599,472.013428 408.841156,471.135010 
	C412.562012,469.282776 412.458008,465.590027 411.091278,462.021057 
	C410.860962,461.419647 410.388275,460.911011 409.429047,459.824982 
z"/>
<path fill="#F47C47" opacity="1.000000" stroke="none" 
	d="
M199.887543,458.842712 
	C194.744583,459.357269 192.618668,462.194824 193.394073,466.715210 
	C194.540512,473.398560 199.795197,471.985565 206.079727,471.273193 
	C204.269363,473.386047 203.619781,474.804291 202.554077,475.269714 
	C198.656296,476.972015 193.416351,475.278259 190.954376,471.817688 
	C188.336243,468.137634 188.468964,462.212708 191.248123,458.701111 
	C193.750336,455.539551 199.586365,453.905457 203.059311,455.615936 
	C203.885208,456.022705 204.293701,457.276947 204.894196,458.141357 
	C203.358231,458.384094 201.822281,458.626831 199.887543,458.842712 
z"/>
<path fill="#F47A44" opacity="1.000000" stroke="none" 
	d="
M421.529236,450.606812 
	C423.248077,451.470551 424.661255,452.589417 426.074432,453.708252 
	C425.942017,453.879547 425.809570,454.050842 425.677155,454.222137 
	C427.092743,455.202179 428.508331,456.182220 429.923920,457.162231 
	C428.465393,457.942688 427.006866,458.723114 424.914581,459.842682 
	C424.914581,462.016449 424.940033,464.807617 424.906525,467.598114 
	C424.879456,469.852936 424.832184,471.978424 427.962311,472.283417 
	C428.592712,472.344818 429.116821,473.497040 429.689972,474.146332 
	C428.970276,474.673737 428.314880,475.510956 427.519989,475.675964 
	C423.684967,476.471893 421.152924,474.433899 420.932434,470.351440 
	C420.780518,467.538300 421.986023,463.945801 420.659576,462.045502 
	C417.666016,457.756836 420.012115,454.504028 421.529236,450.606812 
z"/>
<path fill="#F36A2E" opacity="1.000000" stroke="none" 
	d="
M269.547791,466.683807 
	C269.547821,461.090271 269.364685,455.946838 269.642395,450.828369 
	C269.745361,448.930695 270.930054,447.091705 271.621399,445.225922 
	C272.231842,447.172852 273.281067,449.100281 273.368744,451.070465 
	C273.611481,456.524414 273.335663,462.000275 273.524536,467.458466 
	C273.581818,469.113861 274.479218,470.741943 275.004181,472.378571 
	C275.270172,473.207855 275.563721,474.028320 275.844818,474.852753 
	C274.783020,475.012634 273.545166,475.605530 272.689758,475.257782 
	C268.903900,473.718597 269.655853,470.226379 269.547791,466.683807 
z"/>
<path fill="#148F71" opacity="1.000000" stroke="none" 
	d="
M303.985352,397.038208 
	C300.031067,397.038208 296.565857,397.038208 292.754517,397.038208 
	C292.754517,395.092010 292.754517,393.399841 292.754517,391.462433 
	C299.910034,391.462433 306.799805,391.462433 314.010010,391.462433 
	C314.010010,393.249939 314.010010,394.972015 314.010010,397.038208 
	C310.713074,397.038208 307.593719,397.038208 303.985352,397.038208 
z"/>
<path fill="#F4763F" opacity="1.000000" stroke="none" 
	d="
M231.898102,466.225403 
	C231.895554,468.844543 232.114822,471.042145 231.788651,473.155609 
	C231.645325,474.084198 230.390915,474.841339 229.640991,475.676331 
	C228.977692,474.916077 227.764709,474.173401 227.739731,473.392761 
	C227.569565,468.072998 227.590103,462.743774 227.718109,457.421692 
	C227.735535,456.697144 228.693420,455.995178 229.215881,455.282745 
	C230.038864,455.923950 230.861847,456.565155 231.862381,457.344696 
	C233.244232,456.685913 235.083466,455.809082 236.922699,454.932251 
	C237.353928,455.301117 237.785172,455.669952 238.216400,456.038818 
	C237.460373,457.228973 236.890503,459.242340 235.915207,459.462860 
	C232.235352,460.295044 231.598557,462.631683 231.898102,466.225403 
z"/>
<path fill="#F4763F" opacity="1.000000" stroke="none" 
	d="
M477.292206,455.558167 
	C477.861816,456.348145 478.127472,456.949646 478.400085,457.549316 
	C480.233002,456.679016 482.058929,455.810516 483.884857,454.942017 
	C484.314087,455.288330 484.743317,455.634613 485.172546,455.980927 
	C484.457123,457.186432 483.917358,459.261078 482.995850,459.447357 
	C478.968231,460.261475 478.721466,462.930481 478.873627,466.144226 
	C478.990906,468.621460 479.052460,471.127472 478.782562,473.581482 
	C478.698425,474.346375 477.546295,475.300842 476.699463,475.553711 
	C476.230530,475.693756 474.807007,474.575897 474.793243,474.001526 
	C474.654175,468.213531 474.669006,462.419373 474.822479,456.631805 
	C474.834137,456.192230 476.233795,455.789490 477.292206,455.558167 
z"/>
<path fill="#F47C47" opacity="1.000000" stroke="none" 
	d="
M281.684052,475.517334 
	C280.490967,474.738800 279.040558,473.837280 278.994873,472.869415 
	C278.760223,467.901062 278.785461,462.911743 278.978760,457.939789 
	C279.014496,457.020721 280.239075,456.147858 280.914917,455.253632 
	C281.535797,456.047852 282.700836,456.848969 282.690826,457.635162 
	C282.615601,463.546326 282.308929,469.454559 281.684052,475.517334 
z"/>
<path fill="#F69324" opacity="1.000000" stroke="none" 
	d="
M322.004028,212.997223 
	C322.257324,213.345306 322.508087,213.695328 322.738892,214.058060 
	C322.743011,214.064545 322.507111,214.223709 322.383209,214.311646 
	C322.258881,214.038010 322.134552,213.764359 322.000244,213.250000 
	C321.990234,213.009293 321.999573,213.000397 322.004028,212.997223 
z"/>
<path fill="#FFFFFF" opacity="1.000000" stroke="none" 
	d="
M438.895233,226.617416 
	C438.231598,226.822311 437.831848,226.701645 437.432098,226.580963 
	C437.537506,226.367584 437.664307,225.963150 437.744781,225.972168 
	C438.222168,226.025574 438.688843,226.174835 438.895233,226.617416 
z"/>
<path fill="#FBFDFD" opacity="1.000000" stroke="none" 
	d="
M278.329224,387.777466 
	C279.674316,399.717224 275.149261,407.960114 266.184937,410.441772 
	C257.268585,412.910217 248.800064,408.633423 245.890045,399.831573 
	C243.550186,392.754333 243.802155,385.684326 247.784332,379.150269 
	C251.228867,373.498444 258.335815,370.797821 265.224335,372.235107 
	C272.455597,373.743896 276.729980,378.707764 278.329224,387.777466 
z"/>
<path fill="#FBFDFD" opacity="1.000000" stroke="none" 
	d="
M417.766174,378.049225 
	C417.766174,376.114075 417.766174,374.673462 417.766174,372.682709 
	C424.093872,373.472900 431.023407,370.223389 434.988647,376.651825 
	C436.546906,379.178070 436.564423,384.152466 435.082764,386.762665 
	C431.310547,393.408020 424.258881,390.278809 417.766205,391.145111 
	C417.766205,386.666931 417.766205,382.605347 417.766174,378.049225 
z"/>
<path fill="#F3F9F8" opacity="1.000000" stroke="none" 
	d="
M381.616211,381.787750 
	C382.228973,380.218567 382.699982,378.992401 383.541565,376.801483 
	C386.064362,383.849396 388.286713,390.057861 390.669037,396.713257 
	C385.715057,396.713257 381.350555,396.713257 376.369629,396.713257 
	C378.119019,391.715942 379.796753,386.923370 381.616211,381.787750 
z"/>
<path fill="#FEF0EA" opacity="1.000000" stroke="none" 
	d="
M459.142548,460.083862 
	C462.814880,458.143280 465.678619,457.898407 467.366333,463.142426 
	C464.426971,463.142426 462.014740,463.254852 459.637054,463.019135 
	C459.287415,462.984467 459.101624,461.297546 459.142548,460.083862 
z"/>
<path fill="#FEF0EA" opacity="1.000000" stroke="none" 
	d="
M211.342377,468.348114 
	C213.556305,467.000122 215.627014,466.028595 217.841293,464.989746 
	C219.776123,468.901093 218.715256,470.898834 215.695526,471.839081 
	C213.088593,472.650787 211.069565,472.109436 211.342377,468.348114 
z"/>
<path fill="#FEF0EA" opacity="1.000000" stroke="none" 
	d="
M344.909424,467.780579 
	C344.749786,468.811829 344.703583,469.891785 344.391327,469.975128 
	C342.267853,470.542053 340.088348,470.898987 337.926941,471.323761 
	C337.933716,469.996765 337.401215,467.969666 338.046936,467.472260 
	C340.099609,465.891296 342.594299,464.045532 344.909424,467.780579 
z"/>
<path fill="#FDEAE2" opacity="1.000000" stroke="none" 
	d="
M310.367004,463.130554 
	C309.300568,460.212311 309.714813,459.302399 312.264832,458.894287 
	C315.159119,458.431122 317.592163,458.933044 317.854828,463.182190 
	C315.386505,463.182190 313.093750,463.182190 310.367004,463.130554 
z"/>
<path fill="#FDEAE2" opacity="1.000000" stroke="none" 
	d="
M244.418427,460.625488 
	C249.633362,457.670624 251.286530,458.159637 252.846985,463.181000 
	C250.393631,463.181000 248.085266,463.334259 245.822586,463.080353 
	C245.205917,463.011139 244.726761,461.716492 244.418427,460.625488 
z"/>
<path fill="#FEF7F4" opacity="1.000000" stroke="none" 
	d="
M409.728302,460.092224 
	C410.388275,460.911011 410.860962,461.419647 411.091278,462.021057 
	C412.458008,465.590027 412.562012,469.282776 408.841156,471.135010 
	C407.076599,472.013428 402.759979,471.557556 402.292603,470.507538 
	C401.097595,467.822723 400.410309,464.098053 401.372955,461.467407 
	C402.650024,457.977570 406.236298,458.068848 409.728302,460.092224 
z"/>
</svg>