<svg version="1.1" id="Layer_1" xmlns="http://www.w3.org/2000/svg" xmlns:xlink="http://www.w3.org/1999/xlink" x="0px" y="0px"
	 width="100%" viewBox="0 0 370 277" enable-background="new 0 0 370 277" xml:space="preserve">
<path fill="#FEFEFE" opacity="1.000000" stroke="none" 
	d="
M188.000000,1.000000 
	C248.979355,1.000000 309.958710,1.000000 370.969025,1.000000 
	C370.969025,93.281425 370.969025,185.562866 370.969025,277.922150 
	C247.760361,277.922150 124.520653,277.922150 1.140475,277.922150 
	C1.140475,185.666794 1.140475,93.333435 1.140475,1.000000 
	C62.770973,1.000000 124.416824,1.000000 186.510864,1.342698 
	C168.736450,20.933659 157.613617,43.683254 153.849167,70.920311 
	C133.742538,52.072182 111.147552,40.810490 84.403191,37.659660 
	C81.242004,68.201675 88.522644,95.506187 106.479774,120.999672 
	C97.098167,120.999672 88.789940,120.354950 80.615768,121.127884 
	C60.877869,122.994270 42.714439,129.642609 26.416187,141.057068 
	C25.391079,141.774994 24.178919,143.463120 24.392159,144.392960 
	C24.648006,145.508591 26.383265,147.140671 27.404808,147.089493 
	C35.510101,146.683578 41.495728,151.465317 48.100410,154.904984 
	C62.397221,162.350586 76.778641,169.638229 91.221748,176.796173 
	C96.959976,179.640015 102.354065,179.074997 107.228676,174.322449 
	C117.079819,164.717957 128.738617,158.200745 142.326813,154.813339 
	C142.551575,154.827560 142.961349,154.635269 143.219788,154.663849 
	C143.641785,154.634964 143.805328,154.577499 144.372711,154.630707 
	C148.245621,154.421478 151.753036,153.604996 155.176987,153.869385 
	C168.564285,154.903137 181.926376,156.266129 195.295471,157.531799 
	C203.200058,158.280136 211.100204,159.075470 219.405136,159.975677 
	C222.956055,160.370880 226.100433,160.801880 229.253128,160.875198 
	C235.579697,161.022339 242.098557,160.053192 248.181656,161.293167 
	C253.197296,162.315552 255.976196,160.716293 258.823242,157.478653 
	C259.372009,156.854630 259.979614,156.277191 260.597992,155.720398 
	C270.700592,146.624008 281.342865,138.470108 295.030151,135.417786 
	C304.330566,133.343735 308.385223,134.897919 313.024170,142.676025 
	C325.208679,139.259277 337.296997,137.214722 348.430603,146.682755 
	C349.107574,145.540146 349.798615,144.373795 350.583252,143.049454 
	C325.761566,125.305504 298.425842,118.294395 267.647095,120.818253 
	C285.561890,95.261475 292.842163,68.034904 289.608215,37.992203 
	C288.282898,37.992203 287.454712,37.958782 286.630493,38.001560 
	C285.800262,38.044655 284.966614,38.119202 284.147003,38.255589 
	C265.246918,41.400791 248.077332,48.607887 232.780350,60.189335 
	C228.832962,63.177937 224.914536,66.204803 220.839783,68.945541 
	C220.524963,68.569099 220.353210,68.461189 220.300201,67.960022 
	C218.846710,54.007683 215.080917,41.014545 208.005829,29.399529 
	C201.995300,19.532169 194.717224,10.436895 188.000000,1.000000 
M281.558777,212.032913 
	C297.612030,201.473450 314.501373,192.539581 332.386780,185.457077 
	C334.369446,184.671936 335.754059,182.376724 337.416016,180.781830 
	C335.329651,179.548492 333.352692,177.509369 331.139679,177.208939 
	C312.938995,174.738052 295.718384,178.483109 279.231781,186.167969 
	C269.872162,190.530716 260.622345,195.135803 251.194366,199.343231 
	C240.760025,203.999741 229.929459,207.992874 218.357986,204.973999 
	C208.073730,202.290955 198.076309,198.503815 187.973663,195.139847 
	C187.312317,194.919632 186.833267,194.151947 186.158142,193.537659 
	C186.790939,193.253281 187.079315,193.047562 187.393860,192.993179 
	C208.341492,189.371414 226.913681,179.104767 246.526047,171.757004 
	C247.613739,171.349472 248.216232,169.646881 249.044571,168.547089 
	C247.885300,167.870270 246.793304,166.988419 245.546234,166.579193 
	C244.480179,166.229355 243.234299,166.352997 242.071152,166.384689 
	C221.640625,166.941376 201.524414,164.351196 181.490067,160.625549 
	C168.802856,158.266205 156.015106,157.504303 143.259506,160.299606 
	C129.989746,163.207611 119.107834,170.380051 109.323555,179.497574 
	C104.357025,184.125687 98.601555,185.271988 92.198433,182.987335 
	C89.846252,182.148056 87.398994,181.468414 85.200729,180.321762 
	C69.861115,172.320282 54.594837,164.178207 39.254795,156.177567 
	C36.472240,154.726318 33.458405,153.718491 29.731100,152.163834 
	C30.033596,154.562363 29.909767,155.634735 30.309942,156.449890 
	C38.111759,172.341888 46.650578,187.768326 59.090088,200.636642 
	C80.486717,222.770813 106.915817,237.109940 134.849991,248.909683 
	C164.874313,261.592346 194.731934,260.665833 224.520477,247.305054 
	C244.929733,238.151108 262.608124,224.794556 281.558777,212.032913 
M340.016083,149.691025 
	C338.474091,148.597488 336.965637,146.626434 335.384186,146.566055 
	C329.325043,146.334686 322.735504,145.277588 317.283936,147.197647 
	C308.455994,150.306854 300.372681,155.527344 291.967468,159.841705 
	C290.225861,160.735657 288.451355,161.565430 286.692017,162.424789 
	C291.495575,156.232269 296.964996,151.154007 302.287994,145.926605 
	C303.206970,145.024139 304.261169,143.159607 303.899506,142.328064 
	C303.435608,141.261505 301.670044,140.391739 300.341522,140.166275 
	C298.764832,139.898697 296.893402,140.022797 295.433136,140.643723 
	C288.589539,143.553619 281.088898,145.670364 275.238129,149.988068 
	C266.319366,156.569839 258.414673,164.572220 250.355148,172.260437 
	C239.483627,182.631088 227.729416,191.373596 212.781754,194.933548 
	C211.893829,195.145004 211.118973,195.831192 210.213882,196.340103 
	C219.824280,200.791763 229.446335,201.018600 239.032089,197.429092 
	C245.406967,195.041931 251.569870,192.086349 257.816956,189.360718 
	C273.792603,182.390457 289.102875,173.614746 306.854034,171.465866 
	C308.244659,171.297516 309.591370,170.355789 310.852814,169.597672 
	C319.404846,164.457947 327.958496,159.319199 336.431793,154.051758 
	C337.845673,153.172806 338.870453,151.667953 340.016083,149.691025 
z"/>
<path fill="#F69323" opacity="1.000000" stroke="none" 
	d="
M142.102051,154.799118 
	C128.738617,158.200745 117.079819,164.717957 107.228676,174.322449 
	C102.354065,179.074997 96.959976,179.640015 91.221748,176.796173 
	C76.778641,169.638229 62.397221,162.350586 48.100410,154.904984 
	C41.495728,151.465317 35.510101,146.683578 27.404808,147.089493 
	C26.383265,147.140671 24.648006,145.508591 24.392159,144.392960 
	C24.178919,143.463120 25.391079,141.774994 26.416187,141.057068 
	C42.714439,129.642609 60.877869,122.994270 80.615768,121.127884 
	C88.789940,120.354950 97.098167,120.999672 106.479774,120.999672 
	C88.522644,95.506187 81.242004,68.201675 84.403191,37.659660 
	C111.147552,40.810490 133.742538,52.072182 153.849167,70.920311 
	C157.613617,43.683254 168.736450,20.933659 186.979523,1.342698 
	C187.000000,1.000000 187.500000,1.000000 187.750000,1.000000 
	C194.717224,10.436895 201.995300,19.532169 208.005829,29.399529 
	C215.080917,41.014545 218.846710,54.007683 220.272018,68.377335 
	C219.291245,70.742516 218.760590,72.592445 217.577560,73.806839 
	C202.964722,88.806984 193.700195,106.663338 188.841034,126.925438 
	C188.385376,128.825516 187.783157,130.690414 187.248993,132.571655 
	C181.404144,108.997459 171.250031,88.315842 153.394852,70.406479 
	C152.058578,90.058723 153.372162,108.216377 160.376694,125.565620 
	C163.468735,133.224167 167.437943,140.528564 171.004242,147.997070 
	C170.999557,148.000412 170.990234,148.009766 170.640335,147.980225 
	C156.835144,137.815323 142.451279,129.439713 126.087845,124.906258 
	C120.130554,123.255791 114.104073,121.855042 108.109161,120.340363 
	C108.309654,122.809113 108.959587,124.123779 109.844231,125.254860 
	C117.888031,135.539429 127.656204,143.881424 138.627289,150.904572 
	C140.038330,151.807861 140.955887,153.482056 142.102051,154.799118 
z"/>
<path fill="#038767" opacity="1.000000" stroke="none" 
	d="
M281.267578,212.243347 
	C262.608124,224.794556 244.929733,238.151108 224.520477,247.305054 
	C194.731934,260.665833 164.874313,261.592346 134.849991,248.909683 
	C106.915817,237.109940 80.486717,222.770813 59.090088,200.636642 
	C46.650578,187.768326 38.111759,172.341888 30.309942,156.449890 
	C29.909767,155.634735 30.033596,154.562363 29.731100,152.163834 
	C33.458405,153.718491 36.472240,154.726318 39.254795,156.177567 
	C54.594837,164.178207 69.861115,172.320282 85.200729,180.321762 
	C87.398994,181.468414 89.846252,182.148056 92.198433,182.987335 
	C98.601555,185.271988 104.357025,184.125687 109.323555,179.497574 
	C119.107834,170.380051 129.989746,163.207611 143.259506,160.299606 
	C156.015106,157.504303 168.802856,158.266205 181.490067,160.625549 
	C201.524414,164.351196 221.640625,166.941376 242.071152,166.384689 
	C243.234299,166.352997 244.480179,166.229355 245.546234,166.579193 
	C246.793304,166.988419 247.885300,167.870270 249.044571,168.547089 
	C248.216232,169.646881 247.613739,171.349472 246.526047,171.757004 
	C226.913681,179.104767 208.341492,189.371414 187.393860,192.993179 
	C187.079315,193.047562 186.790939,193.253281 186.158142,193.537659 
	C186.833267,194.151947 187.312317,194.919632 187.973663,195.139847 
	C198.076309,198.503815 208.073730,202.290955 218.357986,204.973999 
	C229.929459,207.992874 240.760025,203.999741 251.194366,199.343231 
	C260.622345,195.135803 269.872162,190.530716 279.231781,186.167969 
	C295.718384,178.483109 312.938995,174.738052 331.139679,177.208939 
	C333.352692,177.509369 335.329651,179.548492 337.416016,180.781830 
	C335.754059,182.376724 334.369446,184.671936 332.386780,185.457077 
	C314.501373,192.539581 297.612030,201.473450 281.267578,212.243347 
z"/>
<path fill="#F69424" opacity="1.000000" stroke="none" 
	d="
M220.982819,69.214088 
	C224.914536,66.204803 228.832962,63.177937 232.780350,60.189335 
	C248.077332,48.607887 265.246918,41.400791 284.147003,38.255589 
	C284.966614,38.119202 285.800262,38.044655 286.630493,38.001560 
	C287.454712,37.958782 288.282898,37.992203 289.608215,37.992203 
	C292.842163,68.034904 285.561890,95.261475 267.647095,120.818253 
	C298.425842,118.294395 325.761566,125.305504 350.583252,143.049454 
	C349.798615,144.373795 349.107574,145.540146 348.430603,146.682755 
	C337.296997,137.214722 325.208679,139.259277 313.024170,142.676025 
	C308.385223,134.897919 304.330566,133.343735 295.030151,135.417786 
	C281.342865,138.470108 270.700592,146.624008 260.597992,155.720398 
	C259.979614,156.277191 259.372009,156.854630 258.823242,157.478653 
	C255.976196,160.716293 253.197296,162.315552 248.181656,161.293167 
	C242.098557,160.053192 235.579697,161.022339 229.253128,160.875198 
	C226.100433,160.801880 222.956055,160.370880 219.628204,159.724716 
	C237.807388,150.171860 254.720749,139.208237 267.183960,120.762680 
	C243.083939,123.862190 222.656326,132.629730 204.732529,147.537231 
	C206.630142,142.942535 208.753204,138.675537 210.850204,134.395798 
	C220.519897,114.661072 223.184021,93.674744 221.923279,72.003654 
	C221.868317,71.058762 221.307846,70.143272 220.982819,69.214088 
z"/>
<path fill="#F26526" opacity="1.000000" stroke="none" 
	d="
M220.839783,68.945541 
	C221.307846,70.143272 221.868317,71.058762 221.923279,72.003654 
	C223.184021,93.674744 220.519897,114.661072 210.850204,134.395798 
	C208.753204,138.675537 206.630142,142.942535 204.732529,147.537231 
	C222.656326,132.629730 243.083939,123.862190 267.183960,120.762680 
	C254.720749,139.208237 237.807388,150.171860 219.225418,159.598709 
	C211.100204,159.075470 203.200058,158.280136 195.295471,157.531799 
	C181.926376,156.266129 168.564285,154.903137 155.176987,153.869385 
	C151.753036,153.604996 148.245621,154.421478 144.259140,154.519440 
	C143.398376,154.191620 143.138260,154.304199 142.961349,154.635269 
	C142.961349,154.635269 142.551575,154.827560 142.326813,154.813339 
	C140.955887,153.482056 140.038330,151.807861 138.627289,150.904572 
	C127.656204,143.881424 117.888031,135.539429 109.844231,125.254860 
	C108.959587,124.123779 108.309654,122.809113 108.109161,120.340363 
	C114.104073,121.855042 120.130554,123.255791 126.087845,124.906258 
	C142.451279,129.439713 156.835144,137.815323 170.650360,148.220428 
	C171.134506,148.763077 171.258713,149.036026 171.382935,149.308960 
	C171.506531,149.221222 171.741852,149.062454 171.737717,149.055939 
	C171.507462,148.693817 171.257187,148.344406 171.008926,147.993729 
	C167.437943,140.528564 163.468735,133.224167 160.376694,125.565620 
	C153.372162,108.216377 152.058578,90.058723 153.394852,70.406479 
	C171.250031,88.315842 181.404144,108.997459 187.248993,132.571655 
	C187.783157,130.690414 188.385376,128.825516 188.841034,126.925438 
	C193.700195,106.663338 202.964722,88.806984 217.577560,73.806839 
	C218.760590,72.592445 219.291245,70.742516 220.153259,68.770599 
	C220.353210,68.461189 220.524963,68.569099 220.839783,68.945541 
z"/>
<path fill="#08896A" opacity="1.000000" stroke="none" 
	d="
M340.045563,150.071655 
	C338.870453,151.667953 337.845673,153.172806 336.431793,154.051758 
	C327.958496,159.319199 319.404846,164.457947 310.852814,169.597672 
	C309.591370,170.355789 308.244659,171.297516 306.854034,171.465866 
	C289.102875,173.614746 273.792603,182.390457 257.816956,189.360718 
	C251.569870,192.086349 245.406967,195.041931 239.032089,197.429092 
	C229.446335,201.018600 219.824280,200.791763 210.213882,196.340103 
	C211.118973,195.831192 211.893829,195.145004 212.781754,194.933548 
	C227.729416,191.373596 239.483627,182.631088 250.355148,172.260437 
	C258.414673,164.572220 266.319366,156.569839 275.238129,149.988068 
	C281.088898,145.670364 288.589539,143.553619 295.433136,140.643723 
	C296.893402,140.022797 298.764832,139.898697 300.341522,140.166275 
	C301.670044,140.391739 303.435608,141.261505 303.899506,142.328064 
	C304.261169,143.159607 303.206970,145.024139 302.287994,145.926605 
	C296.964996,151.154007 291.495575,156.232269 286.692017,162.424789 
	C288.451355,161.565430 290.225861,160.735657 291.967468,159.841705 
	C300.372681,155.527344 308.455994,150.306854 317.283936,147.197647 
	C322.735504,145.277588 329.325043,146.334686 335.384186,146.566055 
	C336.965637,146.626434 338.474091,148.597488 340.045563,150.071655 
z"/>
<path fill="#F69323" opacity="1.000000" stroke="none" 
	d="
M143.219788,154.663849 
	C143.138260,154.304199 143.398376,154.191620 143.855301,154.408783 
	C143.805328,154.577499 143.641785,154.634964 143.219788,154.663849 
z"/>
<path fill="#F69323" opacity="1.000000" stroke="none" 
	d="
M171.004242,147.997070 
	C171.257187,148.344406 171.507462,148.693817 171.737717,149.055939 
	C171.741852,149.062454 171.506531,149.221222 171.382935,149.308960 
	C171.258713,149.036026 171.134506,148.763077 171.000275,148.249954 
	C170.990234,148.009766 170.999557,148.000412 171.004242,147.997070 
z"/>
</svg>